# Blender 4.2.0
# www.blender.org
mtllib wall_1.mtl
g wall_1_Mesh
v 1.000000 1.999999 -0.076023
v 1.000000 1.999999 -0.314006
v -1.000000 1.999999 -0.076023
v -1.000000 1.999999 -0.314006
v 1.000000 0.000000 -0.076023
v 1.000000 0.000000 -0.314006
v -1.000000 0.000000 -0.076023
v -1.000000 0.000000 -0.314006
v -1.000000 0.666755 -0.076023
v -1.000000 1.333333 -0.076023
v -1.000000 1.333333 -0.314006
v -1.000000 0.666755 -0.314006
v 1.000000 1.333333 -0.076023
v 1.000000 0.666755 -0.076023
v 1.000000 0.666755 -0.314006
v 1.000000 1.333333 -0.314006
v -0.333333 1.999999 -0.076023
v 0.333334 1.999999 -0.076023
v 0.333334 1.999999 -0.314006
v -0.333333 1.999999 -0.314006
v 0.333334 0.000000 -0.076023
v -0.333333 0.000000 -0.076023
v -0.333333 0.000000 -0.314006
v 0.333334 0.000000 -0.314006
v -0.333333 0.666755 -0.314006
v 0.333334 0.666755 -0.314006
v -0.333333 1.333333 -0.314006
v 0.333334 1.333333 -0.314006
v -0.333333 1.333333 -0.076023
v 0.333334 1.333333 -0.076023
v -0.333333 0.666755 -0.076023
v 0.333334 0.666755 -0.076023
v -1.000000 1.934276 -0.076023
v 1.000000 1.934276 -0.314006
v -1.000000 1.934276 -0.314006
v 1.000000 1.934276 -0.076023
v -0.333333 1.934276 -0.076023
v 0.333334 1.934276 -0.076023
v -0.333333 1.934276 -0.314006
v 0.333334 1.934276 -0.314006
v -1.000000 0.065724 -0.314006
v 1.000000 0.065724 -0.076023
v -1.000000 0.065724 -0.076023
v 1.000000 0.065724 -0.314006
v -0.333333 0.065724 -0.314006
v 0.333334 0.065724 -0.314006
v -0.333333 0.065724 -0.076023
v 0.333334 0.065724 -0.076023
v 0.333334 1.999999 -0.000000
v 1.000000 1.999999 -0.000000
v -1.000000 1.934276 -0.000000
v -1.000000 1.999999 -0.000000
v -0.333333 0.000000 -0.000000
v -1.000000 0.000000 -0.000000
v 1.000000 0.065724 -0.000000
v 1.000000 0.000000 -0.000000
v -0.333333 1.999999 -0.000000
v 0.333334 0.000000 -0.000000
v -0.333333 1.934276 -0.000000
v 0.333334 1.934276 -0.000000
v 1.000000 1.934276 -0.000000
v -1.000000 0.065724 -0.000000
v -0.333333 0.065724 -0.000000
v 0.333334 0.065724 -0.000000
vn -0.0000 1.0000 -0.0000
vn -1.0000 -0.0000 -0.0000
vn -0.0000 -1.0000 -0.0000
vn 1.0000 -0.0000 -0.0000
vn -0.0000 -0.0000 -1.0000
vn -0.0000 -0.0000 1.0000
vt 0.553150 0.372132
vt 0.534804 0.363517
vt 0.553150 0.363517
vt 0.556482 0.358031
vt 0.543951 0.361492
vt 0.543951 0.358031
vt 0.551557 0.372081
vt 0.525423 0.358811
vt 0.551557 0.358811
vt 0.592241 0.363720
vt 0.571655 0.369405
vt 0.571655 0.363720
vt 0.570992 0.364956
vt 0.556245 0.371956
vt 0.556245 0.364956
vt 0.580417 0.366545
vt 0.585574 0.367054
vt 0.580417 0.367054
vt 0.444381 0.374938
vt 0.454948 0.371641
vt 0.454948 0.374938
vt 0.432662 0.374938
vt 0.444381 0.371641
vt 0.432173 0.378297
vt 0.421608 0.381594
vt 0.421608 0.378297
vt 0.443893 0.378297
vt 0.432173 0.381594
vt 0.428065 0.381425
vt 0.432249 0.378453
vt 0.432249 0.381425
vt 0.428065 0.378453
vt 0.432249 0.375157
vt 0.427332 0.371973
vt 0.431516 0.374944
vt 0.427332 0.374944
vt 0.427332 0.378241
vt 0.443893 0.371704
vt 0.432173 0.375001
vt 0.432173 0.371704
vt 0.443893 0.375001
vt 0.421608 0.375001
vt 0.421608 0.371704
vt 0.444381 0.381531
vt 0.432662 0.378235
vt 0.444381 0.378235
vt 0.454948 0.378235
vt 0.454948 0.381531
vt 0.570104 0.366545
vt 0.575261 0.367054
vt 0.570104 0.367054
vt 0.575261 0.366545
vt 0.547871 0.372522
vt 0.577998 0.360304
vt 0.577998 0.372522
vt 0.602184 0.360437
vt 0.608558 0.365948
vt 0.602184 0.365948
vt 0.603824 0.372081
vt 0.577690 0.358811
vt 0.603824 0.358811
vt 0.577690 0.372081
vt 0.589843 0.372132
vt 0.571496 0.363517
vt 0.589843 0.363517
vt 0.571496 0.372132
vt 0.422096 0.378235
vt 0.422096 0.381531
vt 0.432662 0.381531
vt 0.579609 0.357759
vt 0.548568 0.372618
vt 0.548568 0.357759
vt 0.517743 0.372522
vt 0.547871 0.360304
vt 0.565210 0.370647
vt 0.584789 0.365240
vt 0.584789 0.370647
vt 0.517527 0.372618
vt 0.517527 0.357759
vt 0.422096 0.374938
vt 0.432662 0.371641
vt 0.428065 0.375157
vt 0.432249 0.372185
vt 0.454460 0.378297
vt 0.454460 0.375001
vt 0.548693 0.364510
vt 0.563334 0.370516
vt 0.548693 0.370516
vt 0.534052 0.364510
vt 0.534052 0.370516
vt 0.582229 0.365948
vt 0.563334 0.364510
vt 0.577974 0.370516
vt 0.443893 0.381594
vt 0.431516 0.378241
vt 0.427332 0.381213
vt 0.580045 0.357439
vt 0.611086 0.370285
vt 0.580045 0.370285
vt 0.517964 0.357439
vt 0.549004 0.370285
vt 0.517964 0.370285
vt 0.549004 0.357439
vt 0.570462 0.370622
vt 0.553232 0.363551
vt 0.570462 0.363551
vt 0.587692 0.370622
vt 0.587692 0.363551
vt 0.553232 0.370622
vt 0.536002 0.363551
vt 0.610650 0.357759
vt 0.579609 0.372618
vt 0.565079 0.363720
vt 0.591043 0.370647
vt 0.536954 0.370305
vt 0.533414 0.357459
vt 0.536954 0.357459
vt 0.541498 0.371956
vt 0.541498 0.364956
vt 0.553150 0.360765
vt 0.585740 0.364956
vt 0.570992 0.371956
vt 0.571496 0.360765
vt 0.608126 0.360304
vt 0.608126 0.372522
vt 0.589843 0.360765
vt 0.534804 0.372132
vt 0.556482 0.361492
vt 0.525423 0.372081
vt 0.592241 0.369405
vt 0.585574 0.366545
vt 0.431516 0.371973
vt 0.608558 0.360437
vt 0.517743 0.360304
vt 0.565210 0.365240
vt 0.422096 0.371641
vt 0.428065 0.372185
vt 0.454460 0.371704
vt 0.582229 0.360437
vt 0.577974 0.364510
vt 0.454460 0.381594
vt 0.431516 0.381213
vt 0.611086 0.357439
vt 0.536002 0.370622
vt 0.610650 0.372618
vt 0.565079 0.369405
vt 0.591043 0.365240
vt 0.533414 0.370305
vt 0.534804 0.360765
vt 0.585740 0.371956
s 0
g wall_1_Material
usemtl Material
f 20/1/1 3/2/1 17/3/1
f 41/4/2 7/5/2 43/6/2
f 24/7/3 5/8/3 21/9/3
f 34/10/4 1/11/4 36/12/4
f 38/13/3 59/14/3 37/15/3
f 19/16/5 34/17/5 40/18/5
f 26/19/5 44/20/5 46/21/5
f 28/22/5 15/23/5 26/19/5
f 30/24/6 36/25/6 38/26/6
f 32/27/6 13/28/6 30/24/6
f 44/29/4 14/30/4 42/31/4
f 15/32/4 13/33/4 14/30/4
f 33/34/2 11/35/2 10/36/2
f 11/35/2 9/37/2 10/36/2
f 9/38/6 29/39/6 10/40/6
f 31/41/6 30/24/6 29/39/6
f 10/40/6 37/42/6 33/43/6
f 29/39/6 38/26/6 37/42/6
f 12/44/5 27/45/5 25/46/5
f 25/46/5 28/22/5 26/19/5
f 12/44/5 45/47/5 41/48/5
f 25/46/5 46/21/5 45/47/5
f 4/49/5 39/50/5 35/51/5
f 20/52/5 40/18/5 39/50/5
f 21/53/3 53/54/3 22/55/3
f 42/56/4 56/57/4 5/58/4
f 8/59/3 22/60/3 7/61/3
f 23/62/3 21/9/3 22/60/3
f 2/63/1 18/64/1 1/65/1
f 19/66/1 17/3/1 18/64/1
f 39/67/5 28/22/5 27/45/5
f 35/68/5 27/45/5 11/69/5
f 47/70/1 64/71/1 48/72/1
f 5/73/3 58/74/3 21/53/3
f 4/75/2 33/76/2 3/77/2
f 48/72/1 55/78/1 42/79/1
f 40/80/5 16/81/5 28/22/5
f 16/82/4 36/83/4 13/33/4
f 31/41/6 48/84/6 32/27/6
f 9/38/6 47/85/6 31/41/6
f 45/86/5 24/87/5 23/88/5
f 41/89/5 23/88/5 8/90/5
f 6/91/4 42/56/4 5/58/4
f 46/92/5 6/93/5 24/87/5
f 48/84/6 14/94/6 32/27/6
f 12/95/2 43/96/2 9/37/2
f 58/97/6 55/98/6 64/99/6
f 54/100/6 63/101/6 62/102/6
f 53/103/6 64/99/6 63/101/6
f 59/104/6 49/105/6 57/106/6
f 51/107/6 57/106/6 52/108/6
f 60/109/6 50/110/6 49/105/6
f 43/111/1 63/112/1 47/70/1
f 1/11/4 61/113/4 36/12/4
f 33/76/2 52/114/2 3/77/2
f 7/115/2 62/116/2 43/117/2
f 37/15/3 51/118/3 33/119/3
f 3/2/1 57/120/1 17/3/1
f 36/121/3 60/122/3 38/13/3
f 17/3/1 49/123/1 18/64/1
f 22/55/3 54/124/3 7/125/3
f 18/64/1 50/126/1 1/65/1
f 20/1/1 4/127/1 3/2/1
f 41/4/2 8/128/2 7/5/2
f 24/7/3 6/129/3 5/8/3
f 34/10/4 2/130/4 1/11/4
f 38/13/3 60/122/3 59/14/3
f 19/16/5 2/131/5 34/17/5
f 26/19/5 15/23/5 44/20/5
f 28/22/5 16/81/5 15/23/5
f 30/24/6 13/28/6 36/25/6
f 32/27/6 14/94/6 13/28/6
f 44/29/4 15/32/4 14/30/4
f 15/32/4 16/82/4 13/33/4
f 33/34/2 35/132/2 11/35/2
f 11/35/2 12/95/2 9/37/2
f 9/38/6 31/41/6 29/39/6
f 31/41/6 32/27/6 30/24/6
f 10/40/6 29/39/6 37/42/6
f 29/39/6 30/24/6 38/26/6
f 12/44/5 11/69/5 27/45/5
f 25/46/5 27/45/5 28/22/5
f 12/44/5 25/46/5 45/47/5
f 25/46/5 26/19/5 46/21/5
f 4/49/5 20/52/5 39/50/5
f 20/52/5 19/16/5 40/18/5
f 21/53/3 58/74/3 53/54/3
f 42/56/4 55/133/4 56/57/4
f 8/59/3 23/62/3 22/60/3
f 23/62/3 24/7/3 21/9/3
f 2/63/1 19/66/1 18/64/1
f 19/66/1 20/1/1 17/3/1
f 39/67/5 40/80/5 28/22/5
f 35/68/5 39/67/5 27/45/5
f 47/70/1 63/112/1 64/71/1
f 5/73/3 56/134/3 58/74/3
f 4/75/2 35/135/2 33/76/2
f 48/72/1 64/71/1 55/78/1
f 40/80/5 34/136/5 16/81/5
f 16/82/4 34/137/4 36/83/4
f 31/41/6 47/85/6 48/84/6
f 9/38/6 43/138/6 47/85/6
f 45/86/5 46/92/5 24/87/5
f 41/89/5 45/86/5 23/88/5
f 6/91/4 44/139/4 42/56/4
f 46/92/5 44/140/5 6/93/5
f 48/84/6 42/141/6 14/94/6
f 12/95/2 41/142/2 43/96/2
f 58/97/6 56/143/6 55/98/6
f 54/100/6 53/103/6 63/101/6
f 53/103/6 58/97/6 64/99/6
f 59/104/6 60/109/6 49/105/6
f 51/107/6 59/104/6 57/106/6
f 60/109/6 61/144/6 50/110/6
f 43/111/1 62/145/1 63/112/1
f 1/11/4 50/146/4 61/113/4
f 33/76/2 51/147/2 52/114/2
f 7/115/2 54/148/2 62/116/2
f 37/15/3 59/14/3 51/118/3
f 3/2/1 52/149/1 57/120/1
f 36/121/3 61/150/3 60/122/3
f 17/3/1 57/120/1 49/123/1
f 22/55/3 53/54/3 54/124/3
f 18/64/1 49/123/1 50/126/1
