# Blender 4.2.0
# www.blender.org
mtllib wall_column.mtl
g wall_column_Mesh
v 0.157013 2.000001 0.156039
v 0.157013 0.000000 0.156039
v 0.157013 2.000001 -0.156039
v 0.157013 0.000000 -0.156039
v -0.157013 2.000001 0.156039
v -0.157013 0.000000 0.156039
v -0.157013 2.000001 -0.156039
v -0.157013 0.000000 -0.156039
vn 1.0000 -0.0000 -0.0000
vn -0.0000 -0.0000 -1.0000
vn -1.0000 -0.0000 -0.0000
vn -0.0000 -0.0000 1.0000
vn -0.0000 1.0000 -0.0000
vn -0.0000 -1.0000 -0.0000
vt 0.565979 0.364383
vt 0.576156 0.370558
vt 0.565979 0.370558
vt 0.545003 0.364383
vt 0.555244 0.370558
vt 0.545003 0.370558
vt 0.576403 0.364383
vt 0.586580 0.370558
vt 0.576403 0.370558
vt 0.555491 0.364383
vt 0.565732 0.370558
vt 0.555491 0.370558
vt 0.597005 0.365353
vt 0.586828 0.364383
vt 0.597005 0.364383
vt 0.597005 0.366346
vt 0.586828 0.365376
vt 0.597005 0.365376
vt 0.576156 0.364383
vt 0.555244 0.364383
vt 0.586580 0.364383
vt 0.565732 0.364383
vt 0.586828 0.365353
vt 0.586828 0.366346
s 0
g wall_column_Material
usemtl Material
f 2/1/1 3/2/1 1/3/1
f 4/4/2 7/5/2 3/6/2
f 8/7/3 5/8/3 7/9/3
f 6/10/4 1/11/4 5/12/4
f 7/13/5 1/14/5 3/15/5
f 4/16/6 6/17/6 8/18/6
f 2/1/1 4/19/1 3/2/1
f 4/4/2 8/20/2 7/5/2
f 8/7/3 6/21/3 5/8/3
f 6/10/4 2/22/4 1/11/4
f 7/13/5 5/23/5 1/14/5
f 4/16/6 2/24/6 6/17/6
