# Blender 4.2.0
# www.blender.org
mtllib sharpened_stick.mtl
g sharpened_stick_Mesh
v -0.009498 -0.866884 0.007495
v -0.009080 1.313104 0.011202
v -0.016258 -0.866884 -0.007292
v -0.011298 1.315951 0.008272
v -0.013944 -0.866894 -0.017947
v -0.010773 1.317353 0.004618
v -0.010324 -0.866902 -0.021454
v -0.008212 1.317657 0.002128
v 0.000399 -0.866918 -0.023429
v -0.006307 1.324258 0.000717
v 0.014964 -0.866934 -0.016202
v -0.002527 1.323470 0.002130
v 0.021724 -0.866934 -0.001415
v -0.000262 1.318331 0.005013
v 0.019410 -0.866924 0.009240
v 0.000823 1.314713 0.009807
v 0.015790 -0.866917 0.012747
v -0.002226 1.318827 0.012772
v 0.005067 -0.866900 0.014721
v -0.005479 1.314595 0.012790
v -0.030615 1.054173 0.002742
v -0.019832 1.052886 0.023614
v -0.026800 1.031537 -0.009274
v -0.019461 1.065087 -0.021056
v 0.003122 1.058536 -0.027803
v 0.019466 1.056799 -0.019149
v 0.027602 1.053762 -0.002543
v 0.021011 1.055734 0.016125
v 0.009114 1.035055 0.027635
v -0.007180 1.057255 0.031153
v -0.014313 1.198114 0.013101
v -0.016660 1.270510 0.014029
v -0.021698 1.267588 0.003103
v -0.019380 1.201293 0.003786
v -0.018711 1.263684 -0.005507
v -0.018672 1.218737 -0.005636
v -0.014160 1.254375 -0.009799
v -0.013003 1.205311 -0.011067
v -0.006568 1.264070 -0.010475
v -0.001257 1.213799 -0.015916
v 0.003708 1.265255 -0.003738
v 0.010790 1.204043 -0.010985
v 0.007223 1.267423 0.003453
v 0.013592 1.210394 -0.001486
v 0.005091 1.287486 0.012004
v 0.015875 1.196390 0.009293
v 0.001646 1.268902 0.015203
v 0.004863 1.200582 0.015646
v -0.006328 1.255036 0.016247
v -0.003435 1.188359 0.016826
v -0.006960 1.378102 0.006479
v -0.007383 1.377704 0.005829
v -0.007330 1.378914 0.005123
v -0.006883 1.378102 0.004689
v -0.006108 1.379157 0.004595
v -0.005356 1.378245 0.004926
v -0.005065 1.378687 0.005704
v -0.005200 1.377878 0.006489
v -0.005697 1.377619 0.006971
v -0.006254 1.377930 0.006856
v -0.031071 1.137640 0.005025
v -0.023438 1.149112 -0.010130
v -0.018506 1.127699 -0.018926
v -0.001608 1.122422 -0.023528
v 0.014938 1.125494 -0.014778
v 0.020916 1.122117 0.004204
v 0.018372 1.130224 0.018642
v 0.013251 1.140712 0.023611
v -0.006378 1.125991 0.032371
v -0.017739 1.135826 0.021648
v -0.018769 -0.691906 0.016605
v -0.026207 -0.487079 0.009750
v -0.018715 0.133331 0.025775
v -0.030170 0.126435 0.001118
v -0.027513 -0.494973 0.000102
v -0.022129 -0.699757 0.004828
v -0.029507 0.131802 -0.013029
v -0.022163 -0.497856 -0.020607
v -0.019585 -0.718666 -0.020415
v -0.014702 0.114555 -0.027384
v -0.014019 -0.477581 -0.028481
v -0.011921 -0.696198 -0.030674
v 0.006856 0.117763 -0.031037
v 0.010727 -0.492272 -0.031304
v 0.005972 -0.684035 -0.034954
v 0.023561 0.115579 -0.022103
v 0.028484 -0.480615 -0.020795
v 0.024921 -0.698202 -0.026033
v 0.031110 0.117745 -0.006000
v 0.033059 -0.482933 -0.013117
v 0.035820 -0.713859 -0.004494
v 0.032102 0.101359 0.008550
v 0.031856 -0.475186 0.008365
v 0.031312 -0.714750 0.005944
v 0.007879 0.132488 0.025999
v 0.015114 -0.495024 0.029543
v 0.012536 -0.689882 0.026922
v -0.000033 0.133508 0.024180
v -0.001556 -0.494993 0.026898
v -0.002023 -0.699915 0.025495
v -0.022134 -0.275506 0.017373
v -0.028514 -0.282900 0.000221
v -0.025508 -0.281658 -0.017208
v -0.014033 -0.280144 -0.028322
v 0.009119 -0.285886 -0.031560
v 0.026350 -0.281150 -0.021838
v 0.032412 -0.281225 -0.009948
v 0.032306 -0.285545 0.008068
v 0.011824 -0.279899 0.027381
v -0.000467 -0.279374 0.025149
v -0.018533 0.386355 0.023825
v -0.029652 0.383550 0.001061
v -0.027413 0.374916 -0.012021
v -0.016341 0.383067 -0.025090
v 0.005730 0.381396 -0.030290
v 0.022254 0.379435 -0.021495
v 0.030096 0.379000 -0.005141
v 0.027297 0.371793 0.011468
v 0.009237 0.377018 0.025948
v -0.002866 0.388628 0.026797
v -0.027487 -0.079307 -0.015142
v -0.029322 -0.082611 0.000646
v -0.020404 -0.075466 0.021550
v -0.014347 -0.087173 -0.027877
v 0.008009 -0.088440 -0.031322
v 0.024976 -0.087164 -0.021994
v 0.031782 -0.086119 -0.007998
v 0.032225 -0.096471 0.008286
v 0.009873 -0.078084 0.026667
v -0.000229 -0.077311 0.024641
v -0.019701 -0.833932 0.017402
v -0.032866 -0.833928 -0.004716
v -0.032479 -0.833943 -0.026644
v -0.018687 -0.833971 -0.040004
v 0.003242 -0.834002 -0.039694
v 0.024931 -0.834024 -0.025833
v 0.038096 -0.834028 -0.003714
v 0.037709 -0.834014 0.018213
v 0.023917 -0.833985 0.031573
v 0.001989 -0.833955 0.031264
vn -0.8984 -0.0024 0.4391
vn -0.9855 0.0016 -0.1697
vn -0.7640 0.0034 -0.6452
vn -0.2291 0.0027 -0.9734
vn 0.4703 0.0050 -0.8825
vn 0.9017 0.0050 -0.4323
vn 0.9855 0.0079 0.1695
vn 0.6252 -0.0019 0.7805
vn -0.1134 0.0913 0.9893
vn 0.0676 -0.0025 0.9977
vn -0.1864 -0.0001 0.9825
vn -0.6958 0.0005 -0.7183
vn -0.9982 0.0557 0.0203
vn 0.3613 0.0661 -0.9301
vn 0.6605 0.1123 0.7424
vn -0.1146 -0.0021 -0.9934
vn -0.9904 -0.0048 0.1379
vn -0.9685 -0.0111 -0.2487
vn -0.8871 0.0333 0.4603
vn -0.8953 0.0073 -0.4454
vn -0.8749 0.0215 -0.4838
vn -0.2519 0.0367 -0.9671
vn 0.4736 0.0937 -0.8757
vn 0.9547 0.0811 -0.2862
vn 0.9432 0.0600 0.3267
vn 0.6950 0.0003 0.7190
vn 0.2463 0.0273 0.9688
vn -0.5095 -0.0093 0.8604
vn -0.1240 0.0593 0.9905
vn -0.3288 -0.0061 0.9444
vn -0.0525 0.0445 0.9976
vn 0.1099 0.0116 0.9939
vn 0.7961 0.1716 0.5804
vn 0.5532 0.0407 0.8321
vn 0.9838 0.1478 -0.1013
vn 0.9915 0.1159 -0.0595
vn 0.8842 0.1396 -0.4458
vn 0.9166 0.1499 -0.3706
vn 0.3756 0.1679 -0.9115
vn 0.5305 0.1464 -0.8349
vn -0.3434 0.2050 -0.9165
vn -0.3905 0.0146 -0.9205
vn -0.6921 0.2314 -0.6837
vn -0.6845 0.0015 -0.7290
vn -0.9748 0.2157 -0.0574
vn -0.9893 -0.0360 -0.1411
vn -0.9102 0.1865 0.3698
vn -0.8828 -0.0346 0.4684
vn 0.8593 0.2291 0.4573
vn -0.6463 0.7417 -0.1794
vn 0.2788 0.6446 0.7118
vn 0.2383 0.4988 0.8333
vn 0.8434 0.0732 -0.5322
vn -0.6991 0.0456 -0.7136
vn -0.4296 0.0794 0.8995
vn 0.9837 0.0855 -0.1581
vn -0.2133 0.0696 -0.9745
vn -0.8556 0.0745 0.5123
vn -0.5584 0.2253 0.7983
vn -0.0442 0.1257 0.9911
vn 0.8015 0.1132 0.5871
vn 0.9908 0.0750 -0.1125
vn 0.9551 0.0644 -0.2893
vn 0.4281 0.0734 -0.9007
vn -0.2277 0.1141 -0.9670
vn -0.5671 0.0917 -0.8185
vn -0.9252 0.1633 -0.3424
vn -0.7668 0.1285 0.6290
vn -0.5384 0.0201 0.8425
vn -0.4708 -0.0050 0.8822
vn -0.1512 0.0023 0.9885
vn -0.0141 0.0426 0.9990
vn -0.0930 -0.0066 0.9956
vn -0.1965 0.0013 0.9805
vn 0.6916 0.1105 0.7137
vn 0.7401 -0.0085 0.6724
vn 0.6348 -0.0006 0.7726
vn 0.9983 0.0554 0.0176
vn 0.9169 0.0258 0.3982
vn 0.9996 0.0007 -0.0268
vn 0.8592 0.0130 -0.5114
vn 0.8904 -0.0064 -0.4552
vn 0.8991 0.0060 -0.4376
vn 0.5385 -0.0012 -0.8426
vn 0.4348 0.0146 -0.9004
vn 0.4816 0.0029 -0.8764
vn 0.0142 0.0669 -0.9977
vn -0.2374 0.0075 -0.9714
vn -0.1522 0.0021 -0.9883
vn -0.6910 0.1158 -0.7135
vn -0.7907 -0.0098 -0.6121
vn -0.9935 0.1121 -0.0176
vn -0.9957 -0.0117 -0.0916
vn -0.9932 -0.0038 -0.1162
vn -0.8588 0.0324 0.5112
vn -0.9581 -0.0186 0.2857
vn -0.9192 -0.0046 0.3937
vn -0.0014 -1.0000 0.0006
vn 0.5079 0.0029 -0.8614
vn 0.8604 0.0108 -0.5095
vn 0.9985 0.0023 0.0551
vn 0.7760 0.0182 0.6305
vn -0.1567 0.0075 0.9876
vn -0.5689 0.0095 0.8223
vn 0.0850 0.0076 0.9964
vn -0.2239 0.0014 0.9746
vn 0.5859 0.0017 0.8104
vn 0.9987 0.0183 -0.0475
vn 0.9051 0.0055 -0.4251
vn 0.4721 0.0044 -0.8816
vn -0.1681 0.0074 -0.9857
vn -0.6950 0.0019 -0.7191
vn -0.9990 0.0088 -0.0435
vn -0.9071 0.0019 0.4209
vn -0.9366 -0.0045 0.3504
vn -0.9854 -0.0036 -0.1703
vn -0.1384 0.0004 -0.9904
vn 0.4906 0.0038 -0.8714
vn 0.8909 0.0059 -0.4542
vn 1.0000 0.0004 0.0060
vn 0.6860 -0.0005 0.7276
vn -0.1786 0.0018 0.9839
vn -0.3374 0.0028 0.9414
vn -0.0014 -1.0000 0.0007
vn -0.7768 -0.4276 0.4623
vn -0.8698 -0.4932 -0.0150
vn -0.6021 -0.5024 -0.6205
vn -0.1645 -0.4255 -0.8899
vn 0.4128 -0.3687 -0.8328
vn 0.7797 -0.4203 -0.4642
vn 0.8720 -0.4892 0.0157
vn 0.6007 -0.5033 0.6211
vn 0.1628 -0.4305 0.8878
vn -0.4120 -0.3770 0.8295
vn -0.8885 -0.0016 0.4589
vn -0.9535 -0.0006 -0.3015
vn -0.8478 -0.0007 -0.5302
vn -0.2851 0.0044 -0.9585
vn 0.4683 0.0050 -0.8835
vn 0.8984 0.0052 -0.4392
vn 0.9430 0.0022 0.3327
vn 0.6940 0.0015 0.7200
vn -0.1553 0.0879 0.9839
vn 0.2044 -0.0051 0.9789
vn -0.5096 -0.0089 0.8604
vn -0.9911 0.0581 -0.1202
vn 0.4625 0.0608 -0.8845
vn 0.7633 0.1062 0.6373
vn -0.1383 0.0008 -0.9904
vn -0.9380 0.0056 0.3465
vn -0.9854 -0.0046 -0.1703
vn -0.7811 -0.0213 0.6241
vn -0.9387 0.0243 -0.3438
vn -0.8373 0.0313 -0.5458
vn -0.2742 0.0440 -0.9607
vn 0.4532 0.0863 -0.8872
vn 0.8996 0.1292 -0.4171
vn 0.9871 0.0297 0.1573
vn 0.6964 0.0001 0.7177
vn 0.4206 -0.0210 0.9070
vn -0.6700 0.0345 0.7415
vn -0.4471 0.1382 0.8838
vn -0.2387 -0.0202 0.9709
vn 0.0307 0.0575 0.9979
vn 0.1207 0.0138 0.9926
vn 0.4239 0.0768 0.9025
vn 0.5079 0.0295 0.8609
vn 0.9830 0.1450 -0.1130
vn 0.9925 0.1184 -0.0303
vn 0.8716 0.1425 -0.4691
vn 0.8727 0.1380 -0.4683
vn 0.5314 0.1411 -0.8353
vn 0.4808 0.1578 -0.8625
vn -0.8100 0.1106 -0.5759
vn -0.1956 0.0851 -0.9770
vn -0.4146 0.2060 -0.8864
vn -0.6887 0.0025 -0.7250
vn -0.8911 0.2079 -0.4033
vn -0.9448 0.0001 -0.3277
vn -0.7494 0.0910 0.6559
vn -0.9050 -0.0273 0.4246
vn -0.8032 0.5760 -0.1519
vn 0.1217 0.9690 0.2150
vn 0.2610 0.7116 0.6523
vn -0.3680 0.8806 -0.2985
vn 0.9211 0.0671 -0.3834
vn -0.6545 0.0428 -0.7548
vn -0.4548 0.0776 0.8872
vn 0.9672 0.0742 0.2428
vn -0.6921 0.0457 -0.7203
vn -0.7604 0.0717 0.6454
vn -0.2025 0.1441 0.9686
vn 0.2531 0.2227 0.9414
vn 0.5430 0.1850 0.8191
vn 0.9882 0.0573 0.1419
vn 0.9463 0.0580 -0.3179
vn 0.4567 0.0670 -0.8871
vn -0.4273 0.0767 -0.9008
vn -0.7114 0.1205 -0.6923
vn -0.9968 0.0653 0.0459
vn -0.8418 0.1646 0.5141
vn -0.4659 0.0080 0.8848
vn -0.5696 0.0068 0.8219
vn 0.0852 -0.0208 0.9961
vn -0.1133 0.0231 0.9933
vn -0.1568 -0.0112 0.9876
vn -0.2238 0.0023 0.9746
vn 0.7890 0.0820 0.6090
vn 0.7928 -0.0187 0.6092
vn 0.5913 0.0082 0.8064
vn 0.9172 0.0200 0.3978
vn 0.9984 -0.0028 0.0570
vn 0.9980 0.0039 -0.0636
vn 0.8921 -0.0006 -0.4518
vn 0.8588 -0.0017 -0.5123
vn 0.9050 0.0071 -0.4252
vn 0.4383 0.0204 -0.8986
vn 0.5075 0.0038 -0.8617
vn 0.4720 0.0039 -0.8816
vn -0.2550 0.0352 -0.9663
vn -0.1008 0.0214 -0.9947
vn -0.1671 0.0004 -0.9859
vn -0.8712 0.0756 -0.4851
vn -0.9819 0.0904 -0.1667
vn -0.9688 -0.0311 -0.2460
vn -0.9987 -0.0091 -0.0502
vn -0.9630 0.0078 0.2695
vn -0.9869 -0.0305 0.1586
vn -0.9068 -0.0012 0.4216
vn 0.4913 0.0007 -0.8710
vn 0.8909 0.0072 -0.4542
vn 1.0000 -0.0024 0.0053
vn -0.1783 0.0089 0.9839
vn -0.3420 -0.0273 0.9393
vn -0.1847 -0.0121 0.9827
vn 0.0609 -0.0096 0.9981
vn 0.6249 -0.0033 0.7807
vn 0.9859 0.0033 0.1676
vn 0.9017 0.0049 -0.4323
vn 0.4702 0.0045 -0.8825
vn -0.2292 0.0018 -0.9734
vn -0.7658 0.0093 -0.6430
vn -0.9855 0.0019 -0.1699
vn -0.8987 0.0040 0.4385
vn -0.9198 -0.0002 0.3925
vn -0.9931 -0.0085 -0.1172
vn -0.1522 0.0020 -0.9883
vn 0.4816 0.0027 -0.8764
vn 0.8991 0.0073 -0.4377
vn 0.9997 0.0035 -0.0250
vn 0.6395 0.0089 0.7687
vn -0.1964 0.0027 0.9805
vn -0.1531 -0.0193 0.9880
vn -0.8425 -0.3767 0.3851
vn -0.8825 -0.4298 -0.1912
vn 0.0116 -0.4885 -0.8725
vn 0.4884 -0.4201 -0.7648
vn 0.8453 -0.3691 -0.3864
vn 0.8839 -0.4263 0.1924
vn -0.0130 -0.4938 0.8695
vn -0.4870 -0.4278 0.7614
vt 0.295646 0.097759
vt 0.295917 0.091832
vt 0.295870 0.097786
vt 0.295998 0.092033
vt 0.295967 0.097863
vt 0.298605 0.083726
vt 0.298713 0.089482
vt 0.298571 0.089551
vt 0.298919 0.083489
vt 0.298907 0.089496
vt 0.301482 0.096235
vt 0.301627 0.090244
vt 0.301598 0.096256
vt 0.301789 0.090272
vt 0.301757 0.096261
vt 0.301931 0.090252
vt 0.301892 0.096324
vt 0.295970 0.094144
vt 0.296133 0.089597
vt 0.296152 0.094167
vt 0.296197 0.087530
vt 0.296220 0.087083
vt 0.296225 0.087556
vt 0.296259 0.094077
vt 0.295564 0.097737
vt 0.295708 0.091842
vt 0.298567 0.095376
vt 0.298692 0.097116
vt 0.298594 0.097294
vt 0.295850 0.089494
vt 0.295833 0.088957
vt 0.295839 0.088947
vt 0.298741 0.081123
vt 0.298734 0.080642
vt 0.298765 0.081129
vt 0.296210 0.087082
vt 0.296215 0.087086
vt 0.298898 0.095414
vt 0.298896 0.097244
vt 0.295714 0.105515
vt 0.295817 0.103703
vt 0.295796 0.105586
vt 0.295947 0.103693
vt 0.295944 0.105612
vt 0.295723 0.091105
vt 0.298642 0.082683
vt 0.298526 0.083521
vt 0.298518 0.082780
vt 0.298714 0.083432
vt 0.298868 0.082922
vt 0.298717 0.082875
vt 0.301538 0.089656
vt 0.301512 0.090225
vt 0.301831 0.089663
vt 0.301654 0.089633
vt 0.296034 0.088897
vt 0.296009 0.089404
vt 0.296087 0.088845
vt 0.296280 0.089444
vt 0.295594 0.091191
vt 0.295601 0.091801
vt 0.296326 0.087857
vt 0.296241 0.087988
vt 0.296307 0.088359
vt 0.296219 0.088459
vt 0.296169 0.087895
vt 0.296144 0.088376
vt 0.296133 0.087752
vt 0.296165 0.087546
vt 0.296037 0.088383
vt 0.301789 0.087916
vt 0.301861 0.088191
vt 0.301793 0.088370
vt 0.301863 0.089002
vt 0.301766 0.088878
vt 0.301723 0.088389
vt 0.301758 0.087870
vt 0.301678 0.088934
vt 0.301640 0.088397
vt 0.301737 0.087862
vt 0.301606 0.088845
vt 0.298720 0.081181
vt 0.298783 0.081661
vt 0.298720 0.081748
vt 0.298844 0.082108
vt 0.298731 0.082183
vt 0.298667 0.081664
vt 0.298689 0.081183
vt 0.298665 0.082063
vt 0.298607 0.081627
vt 0.298670 0.081194
vt 0.295899 0.089937
vt 0.295954 0.090370
vt 0.295879 0.090525
vt 0.295791 0.089531
vt 0.295792 0.089910
vt 0.295785 0.090552
vt 0.296228 0.087077
vt 0.296222 0.087069
vt 0.296226 0.087065
vt 0.296209 0.087071
vt 0.296208 0.087072
vt 0.296215 0.087062
vt 0.301784 0.087379
vt 0.298723 0.080644
vt 0.295765 0.089517
vt 0.295826 0.088954
vt 0.301790 0.087386
vt 0.301832 0.087948
vt 0.298730 0.080634
vt 0.295823 0.089506
vt 0.296354 0.088835
vt 0.296273 0.088973
vt 0.296002 0.090989
vt 0.295907 0.091091
vt 0.295480 0.107402
vt 0.295599 0.108594
vt 0.295407 0.108591
vt 0.295484 0.105582
vt 0.295614 0.107333
vt 0.296238 0.095841
vt 0.296419 0.097259
vt 0.296248 0.097311
vt 0.296076 0.102639
vt 0.296287 0.101645
vt 0.296266 0.102613
vt 0.296162 0.101599
vt 0.296278 0.100227
vt 0.296172 0.095867
vt 0.296163 0.097338
vt 0.295963 0.101679
vt 0.295933 0.102582
vt 0.295954 0.100026
vt 0.295933 0.096016
vt 0.295938 0.097391
vt 0.301762 0.107029
vt 0.301830 0.105968
vt 0.301948 0.107028
vt 0.301677 0.103912
vt 0.301752 0.105962
vt 0.301727 0.100390
vt 0.301873 0.098725
vt 0.301866 0.100481
vt 0.301540 0.107027
vt 0.301542 0.105821
vt 0.301591 0.098598
vt 0.301590 0.100398
vt 0.301367 0.107022
vt 0.301418 0.105691
vt 0.301600 0.103891
vt 0.301468 0.100406
vt 0.298704 0.099056
vt 0.298852 0.100279
vt 0.298682 0.100282
vt 0.298863 0.098947
vt 0.298719 0.091864
vt 0.298900 0.093663
vt 0.298711 0.093653
vt 0.298599 0.099252
vt 0.298518 0.100279
vt 0.298555 0.093581
vt 0.295827 0.108596
vt 0.295914 0.107572
vt 0.296002 0.108597
vt 0.295721 0.107403
vt 0.295850 0.100069
vt 0.295954 0.101896
vt 0.295833 0.101925
vt 0.295632 0.101860
vt 0.292105 0.102014
vt 0.292330 0.101833
vt 0.292402 0.101958
vt 0.301464 0.102158
vt 0.301466 0.103990
vt 0.301707 0.102122
vt 0.301857 0.103842
vt 0.296155 0.098748
vt 0.296137 0.100260
vt 0.295512 0.103668
vt 0.296390 0.094060
vt 0.296404 0.095831
vt 0.301747 0.098580
vt 0.301472 0.098575
vt 0.298903 0.091834
vt 0.298544 0.091708
vt 0.295962 0.100022
vt 0.295609 0.100005
vt 0.295655 0.103636
vt 0.298704 0.095365
vt 0.301591 0.102120
vt 0.301860 0.102159
vt 0.295943 0.098705
vt 0.296258 0.098719
vt 0.296433 0.098626
vt 0.292178 0.102139
vt 0.292197 0.101804
vt 0.292241 0.101795
vt 0.292311 0.102168
vt 0.292267 0.102177
vt 0.295783 0.108887
vt 0.295861 0.108887
vt 0.298624 0.100565
vt 0.298667 0.100566
vt 0.298759 0.100565
vt 0.301498 0.107312
vt 0.301596 0.107316
vt 0.301739 0.107317
vt 0.301824 0.107316
vt 0.292105 0.101648
vt 0.292273 0.101616
vt 0.292434 0.101726
vt 0.295527 0.108884
vt 0.295639 0.108886
vt 0.301948 0.089590
vt 0.296254 0.087554
vt 0.295957 0.089971
vt 0.296225 0.087079
vt 0.301776 0.087383
vt 0.298718 0.080636
vt 0.295821 0.088955
vt 0.292127 0.101871
vt 0.292380 0.102101
s 0
g sharpened_stick_Material
usemtl Material
f 111/1/1 21/2/1 112/3/1
f 112/3/2 23/4/2 113/5/2
f 23/6/3 114/7/3 113/8/3
f 114/7/4 25/9/4 115/10/4
f 115/11/5 26/12/5 116/13/5
f 116/13/6 27/14/6 117/15/6
f 117/15/7 28/16/7 118/17/7
f 118/18/8 29/19/8 119/20/8
f 18/21/9 60/22/9 20/23/9
f 29/19/10 120/24/10 119/20/10
f 120/25/11 22/26/11 111/1/11
f 103/27/12 81/28/12 78/29/12
f 6/30/13 52/31/13 53/32/13
f 10/33/14 56/34/14 12/35/14
f 18/21/15 58/36/15 59/37/15
f 81/28/16 105/38/16 84/39/16
f 72/40/17 102/41/17 75/42/17
f 75/42/18 103/43/18 78/44/18
f 70/45/19 21/2/19 22/26/19
f 62/46/20 21/47/20 61/48/20
f 62/46/21 24/49/21 23/6/21
f 64/50/22 24/49/22 63/51/22
f 64/52/23 26/12/23 25/53/23
f 66/54/24 26/12/24 65/55/24
f 66/54/25 28/16/25 27/14/25
f 67/56/26 29/19/26 28/57/26
f 68/58/27 30/59/27 29/19/27
f 69/60/28 22/26/28 30/61/28
f 20/23/29 32/62/29 49/63/29
f 49/63/30 31/64/30 50/65/30
f 20/23/31 47/66/31 18/21/31
f 49/63/32 48/67/32 47/66/32
f 18/21/33 45/68/33 16/69/33
f 47/66/34 46/70/34 45/68/34
f 14/71/35 45/72/35 43/73/35
f 43/73/36 46/74/36 44/75/36
f 14/71/37 41/76/37 12/77/37
f 41/76/38 44/75/38 42/78/38
f 12/77/39 39/79/39 10/80/39
f 41/76/40 40/81/40 39/79/40
f 8/82/41 39/83/41 37/84/41
f 37/84/42 40/85/42 38/86/42
f 8/82/43 35/87/43 6/88/43
f 37/84/44 36/89/44 35/87/44
f 6/88/45 33/90/45 4/91/45
f 33/92/46 36/93/46 34/94/46
f 2/95/47 33/92/47 32/96/47
f 32/96/48 34/94/48 31/97/48
f 52/98/49 54/99/49 53/100/49
f 56/101/50 60/22/50 57/102/50
f 60/22/51 58/36/51 57/102/51
f 52/98/52 56/101/52 55/103/52
f 12/77/53 57/104/53 14/71/53
f 6/88/54 54/105/54 8/82/54
f 20/106/55 51/107/55 2/95/55
f 14/71/56 58/108/56 16/109/56
f 10/33/57 54/105/57 55/110/57
f 4/111/58 51/107/58 52/31/58
f 50/65/59 70/112/59 69/113/59
f 50/65/60 68/58/60 48/67/60
f 46/70/61 68/58/61 67/56/61
f 46/74/62 66/54/62 44/75/62
f 42/78/63 66/54/63 65/55/63
f 42/78/64 64/52/64 40/81/64
f 38/86/65 64/50/65 63/51/65
f 38/86/66 62/46/66 36/89/66
f 34/94/67 62/114/67 61/115/67
f 31/97/68 61/115/68 70/45/68
f 100/116/69 131/117/69 140/118/69
f 99/119/70 71/120/70 100/116/70
f 98/121/71 123/122/71 130/123/71
f 139/124/72 100/125/72 140/126/72
f 97/127/73 99/128/73 100/125/73
f 95/129/74 130/123/74 129/130/74
f 94/131/75 139/124/75 138/132/75
f 93/133/76 97/127/76 94/131/76
f 92/134/77 129/130/77 128/135/77
f 137/136/78 94/137/78 138/138/78
f 90/139/79 94/137/79 91/140/79
f 127/141/80 92/142/80 128/143/80
f 136/144/81 91/140/81 137/136/81
f 88/145/82 90/139/82 91/140/82
f 86/146/83 127/141/83 126/147/83
f 135/148/84 88/145/84 136/144/84
f 85/149/85 87/150/85 88/145/85
f 125/151/86 86/146/86 126/147/86
f 82/152/87 135/153/87 134/154/87
f 81/28/88 85/155/88 82/152/88
f 80/156/89 125/157/89 124/158/89
f 79/159/90 134/154/90 133/160/90
f 78/29/91 82/152/91 79/159/91
f 121/161/12 80/156/12 124/158/12
f 132/162/92 79/163/92 133/164/92
f 76/165/93 78/44/93 79/163/93
f 74/166/94 121/167/94 122/168/94
f 131/117/95 76/165/95 132/162/95
f 71/120/96 75/42/96 76/165/96
f 123/169/97 74/166/97 122/168/97
f 11/170/98 19/171/98 1/172/98
f 105/173/99 87/150/99 84/174/99
f 87/150/100 107/175/100 90/139/100
f 107/175/101 93/176/101 90/139/101
f 93/133/102 109/177/102 96/178/102
f 109/177/103 99/128/103 96/178/103
f 110/179/104 72/40/104 99/119/104
f 98/121/105 111/180/105 73/181/105
f 119/20/106 98/121/106 95/129/106
f 118/18/107 95/129/107 92/134/107
f 89/182/108 118/17/108 92/142/108
f 116/13/109 89/182/109 86/146/109
f 83/183/110 116/13/110 86/146/110
f 114/7/111 83/184/111 80/156/111
f 77/185/112 114/7/112 80/156/112
f 74/166/113 113/5/113 77/186/113
f 73/187/114 112/3/114 74/166/114
f 101/188/115 122/168/115 102/41/115
f 122/168/116 103/43/116 102/41/116
f 103/27/12 124/158/12 104/189/12
f 104/189/117 125/157/117 105/38/117
f 125/151/118 106/190/118 105/173/118
f 126/147/119 107/175/119 106/190/119
f 107/175/120 128/143/120 108/191/120
f 128/135/121 109/177/121 108/192/121
f 129/130/122 110/193/122 109/177/122
f 130/123/123 101/194/123 110/193/123
f 1/172/98 9/195/98 11/170/98
f 19/171/98 15/196/98 17/197/98
f 9/195/124 5/198/124 7/199/124
f 3/200/125 131/117/125 132/162/125
f 5/201/126 132/162/126 133/164/126
f 5/202/127 134/154/127 7/203/127
f 7/203/128 135/153/128 9/204/128
f 9/205/129 136/144/129 11/206/129
f 13/207/130 136/144/130 137/136/130
f 15/208/131 137/136/131 138/138/131
f 17/197/132 138/209/132 139/210/132
f 17/197/133 140/211/133 19/171/133
f 19/212/134 131/117/134 1/213/134
f 111/1/135 22/26/135 21/2/135
f 112/3/136 21/2/136 23/4/136
f 23/6/137 24/49/137 114/7/137
f 114/7/138 24/49/138 25/9/138
f 115/11/139 25/53/139 26/12/139
f 116/13/140 26/12/140 27/14/140
f 117/15/141 27/14/141 28/16/141
f 118/18/142 28/57/142 29/19/142
f 18/21/143 59/37/143 60/22/143
f 29/19/144 30/59/144 120/24/144
f 120/25/145 30/61/145 22/26/145
f 103/27/12 104/189/12 81/28/12
f 6/30/146 4/111/146 52/31/146
f 10/33/147 55/110/147 56/34/147
f 18/21/148 16/69/148 58/36/148
f 81/28/149 104/189/149 105/38/149
f 72/40/150 101/188/150 102/41/150
f 75/42/151 102/41/151 103/43/151
f 70/45/152 61/115/152 21/2/152
f 62/46/153 23/6/153 21/47/153
f 62/46/154 63/51/154 24/49/154
f 64/50/155 25/9/155 24/49/155
f 64/52/156 65/55/156 26/12/156
f 66/54/157 27/14/157 26/12/157
f 66/54/158 67/214/158 28/16/158
f 67/56/159 68/58/159 29/19/159
f 68/58/160 69/113/160 30/59/160
f 69/60/161 70/45/161 22/26/161
f 20/23/162 2/215/162 32/62/162
f 49/63/163 32/62/163 31/64/163
f 20/23/164 49/63/164 47/66/164
f 49/63/165 50/65/165 48/67/165
f 18/21/166 47/66/166 45/68/166
f 47/66/167 48/67/167 46/70/167
f 14/71/168 16/109/168 45/72/168
f 43/73/169 45/72/169 46/74/169
f 14/71/170 43/73/170 41/76/170
f 41/76/171 43/73/171 44/75/171
f 12/77/172 41/76/172 39/79/172
f 41/76/173 42/78/173 40/81/173
f 8/82/174 10/33/174 39/83/174
f 37/84/175 39/83/175 40/85/175
f 8/82/176 37/84/176 35/87/176
f 37/84/177 38/86/177 36/89/177
f 6/88/178 35/87/178 33/90/178
f 33/92/179 35/216/179 36/93/179
f 2/95/180 4/111/180 33/92/180
f 32/96/181 33/92/181 34/94/181
f 52/98/182 55/103/182 54/99/182
f 56/101/183 51/217/183 60/22/183
f 60/22/184 59/37/184 58/36/184
f 52/98/185 51/217/185 56/101/185
f 12/77/186 56/218/186 57/104/186
f 6/88/187 53/219/187 54/105/187
f 20/106/188 60/220/188 51/107/188
f 14/71/189 57/104/189 58/108/189
f 10/33/190 8/82/190 54/105/190
f 4/111/191 2/95/191 51/107/191
f 50/65/192 31/64/192 70/112/192
f 50/65/193 69/113/193 68/58/193
f 46/70/194 48/67/194 68/58/194
f 46/74/195 67/214/195 66/54/195
f 42/78/196 44/75/196 66/54/196
f 42/78/197 65/55/197 64/52/197
f 38/86/198 40/85/198 64/50/198
f 38/86/199 63/51/199 62/46/199
f 34/94/200 36/93/200 62/114/200
f 31/97/201 34/94/201 61/115/201
f 100/116/202 71/120/202 131/117/202
f 99/119/203 72/40/203 71/120/203
f 98/121/204 73/181/204 123/122/204
f 139/124/205 97/127/205 100/125/205
f 97/127/206 96/178/206 99/128/206
f 95/129/207 98/121/207 130/123/207
f 94/131/208 97/127/208 139/124/208
f 93/133/209 96/178/209 97/127/209
f 92/134/210 95/129/210 129/130/210
f 137/136/211 91/140/211 94/137/211
f 90/139/212 93/176/212 94/137/212
f 127/141/213 89/182/213 92/142/213
f 136/144/214 88/145/214 91/140/214
f 88/145/215 87/150/215 90/139/215
f 86/146/216 89/182/216 127/141/216
f 135/148/217 85/149/217 88/145/217
f 85/149/218 84/174/218 87/150/218
f 125/151/219 83/183/219 86/146/219
f 82/152/220 85/155/220 135/153/220
f 81/28/221 84/39/221 85/155/221
f 80/156/222 83/184/222 125/157/222
f 79/159/223 82/152/223 134/154/223
f 78/29/12 81/28/12 82/152/12
f 121/161/12 77/185/12 80/156/12
f 132/162/224 76/165/224 79/163/224
f 76/165/225 75/42/225 78/44/225
f 74/166/226 77/186/226 121/167/226
f 131/117/227 71/120/227 76/165/227
f 71/120/228 72/40/228 75/42/228
f 123/169/229 73/187/229 74/166/229
f 11/170/98 13/221/98 19/171/98
f 105/173/230 106/190/230 87/150/230
f 87/150/231 106/190/231 107/175/231
f 107/175/232 108/191/232 93/176/232
f 93/133/121 108/192/121 109/177/121
f 109/177/233 110/193/233 99/128/233
f 110/179/234 101/188/234 72/40/234
f 98/121/235 120/24/235 111/180/235
f 119/20/236 120/24/236 98/121/236
f 118/18/237 119/20/237 95/129/237
f 89/182/238 117/15/238 118/17/238
f 116/13/239 117/15/239 89/182/239
f 83/183/240 115/11/240 116/13/240
f 114/7/241 115/10/241 83/184/241
f 77/185/242 113/8/242 114/7/242
f 74/166/243 112/3/243 113/5/243
f 73/187/244 111/1/244 112/3/244
f 101/188/245 123/169/245 122/168/245
f 122/168/246 121/167/246 103/43/246
f 103/27/12 121/161/12 124/158/12
f 104/189/247 124/158/247 125/157/247
f 125/151/248 126/147/248 106/190/248
f 126/147/249 127/141/249 107/175/249
f 107/175/250 127/141/250 128/143/250
f 128/135/251 129/130/251 109/177/251
f 129/130/252 130/123/252 110/193/252
f 130/123/253 123/122/253 101/194/253
f 1/172/98 3/222/98 9/195/98
f 19/171/124 13/221/124 15/196/124
f 9/195/98 3/222/98 5/198/98
f 3/200/254 1/213/254 131/117/254
f 5/201/255 3/200/255 132/162/255
f 5/202/127 133/160/127 134/154/127
f 7/203/256 134/154/256 135/153/256
f 9/205/257 135/148/257 136/144/257
f 13/207/258 11/206/258 136/144/258
f 15/208/259 13/207/259 137/136/259
f 17/197/132 15/196/132 138/209/132
f 17/197/260 139/210/260 140/211/260
f 19/212/261 140/118/261 131/117/261
