# Blender 4.2.1 LTS
# www.blender.org
mtllib scissors.mtl
g scissor_blade_left_Mesh
v -0.023986 -0.012991 0.103215
v -0.023986 -0.005060 0.103215
v -0.002339 -0.012991 -0.008398
v -0.002339 -0.005060 -0.008398
v -0.022112 -0.009246 0.109318
v -0.022112 -0.008805 0.109318
v 0.007589 -0.009246 -0.003087
v 0.007589 -0.008805 -0.003087
v -0.023768 -0.012991 0.075055
v -0.023768 -0.005060 0.075055
v -0.013224 -0.009246 0.078052
v -0.013224 -0.008805 0.078052
v 0.012343 -0.005644 -0.035552
v 0.012343 -0.012406 -0.035552
v 0.019869 -0.011469 -0.032526
v 0.019869 -0.006582 -0.032526
v 0.019565 -0.005644 -0.077316
v 0.019565 -0.012406 -0.077316
v 0.041155 -0.011469 -0.065064
v 0.041155 -0.006582 -0.065064
v 0.014056 -0.010884 -0.021345
v 0.008748 -0.012991 -0.022379
v 0.008748 -0.005060 -0.022379
v 0.014056 -0.007166 -0.021345
v 0.047741 -0.010884 -0.068325
v 0.016345 -0.012991 -0.083922
v 0.016345 -0.005060 -0.083922
v 0.047741 -0.007166 -0.068325
v 0.037605 -0.007166 -0.030323
v 0.048228 -0.007166 -0.050510
v 0.037605 -0.010884 -0.030323
v 0.048228 -0.010884 -0.050510
v 0.033736 -0.006582 -0.037547
v 0.040842 -0.006582 -0.051193
v 0.033736 -0.011469 -0.037547
v 0.040842 -0.011469 -0.051193
v 0.005533 -0.005060 -0.063416
v 0.003978 -0.005060 -0.045796
v 0.005533 -0.012991 -0.063416
v 0.003978 -0.012991 -0.045796
v 0.011797 -0.005644 -0.059443
v 0.011364 -0.005644 -0.045112
v 0.011797 -0.012406 -0.059443
v 0.011364 -0.012406 -0.045112
v 0.036478 -0.011937 -0.084400
v 0.036478 -0.006113 -0.084400
v 0.034293 -0.011937 -0.077467
v 0.034293 -0.006113 -0.077467
v 0.009382 -0.007166 -0.011279
v 0.004759 -0.005060 -0.013510
v 0.004759 -0.012991 -0.013510
v 0.009382 -0.010884 -0.011279
vn -0.9686 -0.0000 -0.2487
vn 0.3463 0.9251 0.1558
vn 0.9619 -0.0000 0.2734
vn -0.9560 -0.0000 0.2935
vn 0.3340 -0.9426 0.0026
vn 0.7055 0.6798 0.2005
vn 0.3132 0.9463 0.0804
vn 0.3138 -0.9461 0.0806
vn 0.9686 -0.0000 0.2485
vn -1.0000 -0.0000 -0.0077
vn 0.0103 -0.0000 0.9999
vn -0.9120 -0.0000 -0.4102
vn 0.9070 -0.0000 0.4211
vn 0.3377 -0.9281 0.1568
vn 0.8190 -0.0000 -0.5739
vn -0.8846 -0.0000 -0.4664
vn 0.9996 -0.0000 -0.0273
vn 0.9171 -0.0000 0.3986
vn 0.3587 -0.9317 0.0566
vn 0.0850 0.9917 0.0960
vn 0.0319 -0.9994 0.0101
vn 0.0644 0.9977 0.0203
vn 0.0245 0.9974 0.0676
vn 0.0729 0.9968 0.0317
vn 0.0796 -0.9968 -0.0082
vn 0.0787 -0.9969 0.0018
vn -0.3404 -0.0000 -0.9403
vn 0.3731 -0.0000 -0.9278
vn -0.9997 -0.0000 -0.0226
vn -0.8870 -0.0000 -0.4618
vn 0.0248 -0.9976 0.0650
vn 0.0759 -0.9963 0.0399
vn 0.0872 0.9962 -0.0024
vn 0.0752 0.9964 0.0392
vn 0.3562 -0.0000 0.9344
vn 0.8849 -0.0000 0.4657
vn 0.0868 -0.9952 0.0457
vn 0.0880 -0.9961 0.0078
vn 0.0927 0.9955 -0.0189
vn 0.0786 0.9969 0.0024
vn 0.9948 -0.0000 -0.1019
vn 0.9995 -0.0000 0.0302
vn -0.9799 -0.0000 0.1996
vn -0.9961 -0.0000 -0.0879
vn 0.0536 0.9966 0.0620
vn 0.0840 -0.9964 -0.0088
vn -0.0237 -0.0000 -0.9997
vn -0.8750 -0.0000 0.4841
vn 0.2991 -0.9210 0.2497
vn 0.9769 -0.0000 0.2139
vn -0.5845 -0.0000 -0.8114
vn 0.2030 0.9378 0.2818
vn 0.3377 0.9281 0.1568
vn 0.7055 -0.6798 0.2005
vn 0.3340 0.9426 0.0026
vn 0.3138 0.9461 0.0806
vn 0.3132 -0.9463 0.0804
vn 0.3463 -0.9251 0.1558
vn 0.0850 -0.9917 0.0960
vn 0.3587 0.9317 0.0566
vn 0.0536 -0.9966 0.0620
vn 0.0840 0.9964 -0.0088
vn 0.0248 0.9976 0.0650
vn 0.0868 0.9952 0.0457
vn 0.0927 -0.9955 -0.0189
vn 0.0872 -0.9962 -0.0024
vn 0.0245 -0.9974 0.0676
vn 0.0752 -0.9964 0.0392
vn 0.0787 0.9969 0.0018
vn 0.0759 0.9963 0.0399
vn 0.0729 -0.9968 0.0317
vn 0.0786 -0.9969 0.0024
vn 0.0796 0.9968 -0.0082
vn 0.0880 0.9961 0.0078
vn 0.0319 0.9994 0.0101
vn 0.0644 -0.9977 0.0203
vn 0.2030 -0.9378 0.2818
vn 0.2991 0.9210 0.2497
vt 0.538219 0.451047
vt 0.540762 0.423518
vt 0.540762 0.451047
vt 0.541864 0.440641
vt 0.540155 0.443817
vt 0.540125 0.440699
vt 0.541287 0.409083
vt 0.541428 0.398678
vt 0.541428 0.409083
vt 0.539561 0.461249
vt 0.538219 0.459598
vt 0.540762 0.459598
vt 0.545889 0.453974
vt 0.545751 0.462757
vt 0.542249 0.454454
vt 0.546733 0.411495
vt 0.546596 0.402713
vt 0.548123 0.401168
vt 0.542476 0.438007
vt 0.543093 0.411015
vt 0.541631 0.427463
vt 0.537876 0.427184
vt 0.541287 0.435928
vt 0.541428 0.435928
vt 0.543302 0.435869
vt 0.545320 0.440518
vt 0.543151 0.440518
vt 0.538219 0.421222
vt 0.540762 0.418115
vt 0.540762 0.421222
vt 0.541954 0.438617
vt 0.540762 0.442094
vt 0.540762 0.438617
vt 0.541019 0.424829
vt 0.539310 0.421653
vt 0.541095 0.421271
vt 0.545357 0.418576
vt 0.543827 0.423049
vt 0.543489 0.418576
vt 0.538219 0.406027
vt 0.540762 0.398678
vt 0.540762 0.406027
vt 0.546211 0.430108
vt 0.545018 0.435649
vt 0.545018 0.430108
vt 0.545320 0.406116
vt 0.543151 0.412252
vt 0.543151 0.406116
vt 0.538715 0.417320
vt 0.539559 0.448150
vt 0.541940 0.444199
vt 0.542171 0.448229
vt 0.535514 0.404121
vt 0.539532 0.399869
vt 0.539779 0.402186
vt 0.540623 0.463284
vt 0.545727 0.462325
vt 0.540377 0.465601
vt 0.547609 0.449858
vt 0.545543 0.451483
vt 0.536359 0.461348
vt 0.534030 0.455462
vt 0.536377 0.455100
vt 0.534967 0.415384
vt 0.537222 0.414636
vt 0.543359 0.404949
vt 0.547279 0.408317
vt 0.545024 0.409065
vt 0.541062 0.463360
vt 0.542629 0.459272
vt 0.542629 0.463360
vt 0.541062 0.459272
vt 0.542930 0.456724
vt 0.545005 0.451208
vt 0.546572 0.446975
vt 0.546572 0.451208
vt 0.545005 0.446975
vt 0.546572 0.442094
vt 0.541326 0.417241
vt 0.546764 0.415611
vt 0.544699 0.413986
vt 0.544203 0.460521
vt 0.548123 0.457153
vt 0.545869 0.456405
vt 0.546512 0.398678
vt 0.545320 0.406632
vt 0.545320 0.398678
vt 0.546211 0.423049
vt 0.545018 0.423049
vt 0.533186 0.410007
vt 0.533714 0.402595
vt 0.535532 0.410370
vt 0.535811 0.450085
vt 0.538066 0.450833
vt 0.543151 0.401601
vt 0.543151 0.398678
vt 0.545320 0.401601
vt 0.538219 0.418115
vt 0.540762 0.411527
vt 0.538219 0.411527
vt 0.534558 0.462875
vt 0.544883 0.403144
vt 0.545694 0.412252
vt 0.544855 0.454241
vt 0.539280 0.424771
vt 0.538219 0.423518
vt 0.538721 0.438286
vt 0.541287 0.398678
vt 0.539420 0.461249
vt 0.547279 0.464302
vt 0.545169 0.435869
vt 0.541954 0.442094
vt 0.545019 0.423049
vt 0.538219 0.398678
vt 0.546211 0.435649
vt 0.545320 0.412252
vt 0.540762 0.456724
vt 0.545005 0.442094
vt 0.546512 0.406632
vt 0.546722 0.454241
s 0
g scissor_blade_left_Material
usemtl Material
f 10/1/1 3/2/1 9/3/1
f 49/4/2 23/5/2 50/6/2
f 12/7/3 5/8/3 11/9/3
f 5/10/4 2/11/4 1/12/4
f 11/13/5 1/14/5 9/15/5
f 12/16/6 2/17/6 6/18/6
f 8/19/7 10/20/7 12/16/7
f 7/21/8 9/15/8 3/22/8
f 8/23/9 11/9/9 7/24/9
f 2/11/10 9/3/10 1/12/10
f 47/25/11 17/26/11 18/27/11
f 50/28/12 22/29/12 51/30/12
f 52/31/13 24/32/13 49/33/13
f 52/34/14 22/35/14 21/36/14
f 46/37/15 25/38/15 45/39/15
f 37/40/16 26/41/16 39/42/16
f 32/43/17 28/44/17 30/45/17
f 43/46/18 17/47/18 41/48/18
f 14/49/19 21/36/19 22/35/19
f 13/50/20 24/51/20 16/52/20
f 18/53/21 45/54/21 47/55/21
f 48/56/22 28/57/22 46/58/22
f 16/52/23 29/59/23 33/60/23
f 17/61/24 37/62/24 41/63/24
f 14/49/25 40/64/25 44/65/25
f 19/66/26 32/67/26 36/68/26
f 35/69/27 16/70/27 33/71/27
f 15/72/28 13/73/28 16/70/28
f 19/74/29 34/75/29 20/76/29
f 36/77/30 33/78/30 34/75/30
f 15/79/31 31/80/31 21/36/31
f 35/81/32 32/67/32 31/80/32
f 20/82/33 30/83/33 28/57/33
f 33/60/34 30/83/34 34/84/34
f 21/85/35 29/86/35 24/87/35
f 31/88/36 30/45/36 29/89/36
f 18/53/37 39/90/37 26/91/37
f 43/92/38 40/64/38 39/90/38
f 13/50/39 38/93/39 23/5/39
f 41/63/40 38/93/40 42/94/40
f 14/87/41 42/95/41 13/96/41
f 44/97/42 41/48/42 42/95/42
f 23/98/43 40/99/43 22/29/43
f 38/100/44 39/42/44 40/99/44
f 17/61/45 46/58/45 27/101/45
f 47/55/46 25/102/46 19/66/46
f 27/103/47 45/39/47 26/47/47
f 20/76/48 47/104/48 19/74/48
f 7/21/49 51/105/49 52/34/49
f 7/24/50 49/33/50 8/23/50
f 4/106/51 51/30/51 3/2/51
f 8/19/52 50/6/52 4/107/52
f 10/1/1 4/106/1 3/2/1
f 49/4/53 24/51/53 23/5/53
f 12/7/3 6/108/3 5/8/3
f 5/10/4 6/109/4 2/11/4
f 11/13/54 5/110/54 1/14/54
f 12/16/55 10/20/55 2/17/55
f 8/19/56 4/107/56 10/20/56
f 7/21/57 11/13/57 9/15/57
f 8/23/9 12/7/9 11/9/9
f 2/11/10 10/1/10 9/3/10
f 47/25/11 48/111/11 17/26/11
f 50/28/12 23/98/12 22/29/12
f 52/31/13 21/112/13 24/32/13
f 52/34/58 51/105/58 22/35/58
f 46/37/15 28/113/15 25/38/15
f 37/40/16 27/114/16 26/41/16
f 32/43/17 25/115/17 28/44/17
f 43/46/18 18/116/18 17/47/18
f 14/49/59 15/79/59 21/36/59
f 13/50/60 23/5/60 24/51/60
f 18/53/61 26/91/61 45/54/61
f 48/56/62 20/82/62 28/57/62
f 16/52/63 24/51/63 29/59/63
f 17/61/64 27/101/64 37/62/64
f 14/49/65 22/35/65 40/64/65
f 19/66/66 25/102/66 32/67/66
f 35/69/27 15/72/27 16/70/27
f 15/72/28 14/117/28 13/73/28
f 19/74/29 36/77/29 34/75/29
f 36/77/30 35/118/30 33/78/30
f 15/79/67 35/81/67 31/80/67
f 35/81/68 36/68/68 32/67/68
f 20/82/69 34/84/69 30/83/69
f 33/60/70 29/59/70 30/83/70
f 21/85/35 31/119/35 29/86/35
f 31/88/36 32/43/36 30/45/36
f 18/53/71 43/92/71 39/90/71
f 43/92/72 44/65/72 40/64/72
f 13/50/73 42/94/73 38/93/73
f 41/63/74 37/62/74 38/93/74
f 14/87/41 44/97/41 42/95/41
f 44/97/42 43/46/42 41/48/42
f 23/98/43 38/100/43 40/99/43
f 38/100/44 37/40/44 39/42/44
f 17/61/75 48/56/75 46/58/75
f 47/55/76 45/54/76 25/102/76
f 27/103/47 46/37/47 45/39/47
f 20/76/48 48/120/48 47/104/48
f 7/21/77 3/22/77 51/105/77
f 7/24/50 52/31/50 49/33/50
f 4/106/51 50/28/51 51/30/51
f 8/19/78 49/4/78 50/6/78
g scissor_blade_right_Mesh
v 0.024793 -0.001456 0.109204
v 0.024793 -0.009386 0.109204
v 0.002103 -0.002043 -0.003793
v 0.004173 -0.009386 -0.008397
v 0.023262 -0.004985 0.109319
v 0.023262 -0.005856 0.109319
v -0.002282 -0.002974 -0.001447
v -0.005755 -0.007280 -0.003086
v 0.015850 -0.001456 0.043403
v 0.015850 -0.009386 0.043403
v 0.005306 -0.004985 0.046400
v 0.005306 -0.005856 0.046400
v -0.010908 -0.008802 -0.035723
v -0.010908 -0.002040 -0.035723
v -0.019631 -0.002978 -0.033381
v -0.019631 -0.007864 -0.033381
v -0.024973 -0.008802 -0.079881
v -0.024973 -0.002040 -0.079881
v -0.043484 -0.002978 -0.063010
v -0.043484 -0.007864 -0.063010
v -0.011937 -0.003562 -0.021345
v -0.006629 -0.001456 -0.022379
v -0.006629 -0.009386 -0.022379
v -0.011937 -0.007280 -0.021345
v -0.050070 -0.003562 -0.066271
v -0.021754 -0.001456 -0.086488
v -0.021754 -0.009386 -0.086488
v -0.050070 -0.007280 -0.066271
v -0.033432 -0.007280 -0.031007
v -0.049188 -0.007280 -0.047600
v -0.033432 -0.003562 -0.031007
v -0.049188 -0.003562 -0.047600
v -0.029564 -0.007864 -0.038231
v -0.041802 -0.007864 -0.048284
v -0.029564 -0.002978 -0.038231
v -0.041802 -0.002978 -0.048284
v -0.005809 -0.009386 -0.073681
v -0.001517 -0.009386 -0.053494
v -0.005809 -0.001456 -0.073681
v -0.001517 -0.001456 -0.053494
v -0.012073 -0.008802 -0.069707
v -0.008903 -0.008802 -0.052810
v -0.012073 -0.002040 -0.069707
v -0.008903 -0.002040 -0.052810
v -0.042707 -0.002509 -0.083397
v -0.042707 -0.008333 -0.083397
v -0.038539 -0.002509 -0.077442
v -0.038539 -0.008333 -0.077442
v -0.007548 -0.007280 -0.011278
v -0.002925 -0.009386 -0.013510
v -0.002925 -0.001456 -0.013510
v -0.007548 -0.003562 -0.011278
v 0.006763 -0.009386 0.003095
v -0.001184 -0.002973 0.003466
v 0.003262 -0.002044 0.001347
v -0.003301 -0.005856 0.007893
v -0.005755 -0.003562 -0.003086
v 0.004173 -0.001456 -0.008397
v -0.003301 -0.004985 0.007893
v 0.006763 -0.001456 0.003095
v -0.002757 -0.000466 -0.001340
v 0.001628 0.000466 -0.003686
v -0.001659 -0.000465 0.003573
v 0.002787 0.000465 0.001453
vn 0.9755 -0.0000 -0.2199
vn -0.3507 -0.9250 0.1465
vn -0.9616 -0.0000 0.2744
vn 0.0748 -0.0000 0.9972
vn -0.3065 0.9509 0.0417
vn -0.8846 -0.3920 0.2525
vn -0.2996 -0.9517 0.0670
vn -0.3012 0.9511 0.0679
vn -0.9759 -0.0000 0.2181
vn 0.9909 -0.0000 -0.1347
vn 0.1770 -0.0000 0.9842
vn 0.9227 -0.0000 -0.3854
vn -0.9167 -0.0000 0.3996
vn -0.3397 0.9288 0.1481
vn -0.9187 -0.0000 -0.3950
vn 0.6262 -0.0000 -0.7796
vn -0.9989 -0.0000 0.0472
vn -0.6193 -0.0000 0.7852
vn -0.3555 0.9318 0.0732
vn -0.0800 -0.9918 0.0993
vn -0.0307 0.9993 0.0215
vn -0.0543 -0.9978 0.0380
vn -0.0312 -0.9975 0.0640
vn -0.0519 -0.9966 0.0647
vn -0.0797 0.9968 -0.0094
vn -0.0780 0.9969 0.0089
vn 0.4388 -0.0000 -0.8986
vn -0.2593 -0.0000 -0.9658
vn 0.9935 -0.0000 -0.1135
vn 0.6348 -0.0000 -0.7727
vn -0.0305 0.9972 0.0679
vn -0.0460 0.9974 0.0560
vn -0.0905 -0.9959 0.0043
vn -0.0724 -0.9950 0.0687
vn -0.4100 -0.0000 0.9121
vn -0.7252 -0.0000 0.6886
vn -0.0502 0.9967 0.0637
vn -0.0819 0.9965 0.0174
vn -0.0899 -0.9958 -0.0148
vn -0.0775 -0.9969 0.0145
vn -0.9932 -0.0000 -0.1166
vn -0.9828 -0.0000 0.1844
vn 0.9868 -0.0000 0.1621
vn 0.9781 -0.0000 -0.2080
vn -0.0400 -0.9968 0.0687
vn -0.0892 0.9960 0.0018
vn -0.1460 -0.0000 -0.9893
vn 0.9460 -0.0000 0.3241
vn -0.3796 0.9214 0.0831
vn -0.9769 -0.0000 0.2139
vn 0.5845 -0.0000 -0.8114
vn -0.1192 -0.9790 0.1655
vn 0.4228 0.0416 0.9052
vn -0.2486 -0.9519 0.1790
vn -0.1860 0.9816 0.0422
vn -0.4111 0.8878 0.2070
vn -0.1855 0.9817 0.0418
vn -0.1856 0.9818 0.0412
vn -0.1860 0.9816 0.0421
vn -0.9581 -0.1904 0.2141
vn 0.9577 0.1904 -0.2159
vn -0.4629 -0.0500 -0.8850
vn -0.3397 -0.9288 0.1481
vn -0.8846 0.3920 0.2525
vn -0.3065 -0.9509 0.0417
vn -0.3012 -0.9511 0.0679
vn -0.2996 0.9517 0.0670
vn -0.3507 0.9250 0.1465
vn -0.0800 0.9918 0.0993
vn -0.3555 -0.9318 0.0732
vn -0.0400 0.9968 0.0687
vn -0.0892 -0.9960 0.0018
vn -0.0305 -0.9972 0.0679
vn -0.0502 -0.9967 0.0637
vn -0.0899 0.9958 -0.0148
vn -0.0905 0.9959 0.0043
vn -0.0312 0.9975 0.0640
vn -0.0724 0.9950 0.0687
vn -0.0780 -0.9969 0.0089
vn -0.0460 -0.9974 0.0560
vn -0.0519 0.9966 0.0647
vn -0.0775 0.9969 0.0145
vn -0.0797 -0.9968 -0.0094
vn -0.0819 -0.9965 0.0174
vn -0.0307 -0.9993 0.0215
vn -0.0543 0.9978 0.0380
vn -0.1192 0.9790 0.1655
vn -0.3796 -0.9214 0.0831
vn -0.1859 -0.9817 0.0419
vn -0.1860 0.9817 0.0416
vn -0.1856 0.9818 0.0413
vn -0.1607 0.9252 0.3437
vt 0.535626 0.428270
vt 0.538168 0.424507
vt 0.538169 0.428263
vt 0.537636 0.441641
vt 0.536615 0.445109
vt 0.535958 0.442098
vt 0.542655 0.420935
vt 0.542355 0.441682
vt 0.542376 0.420934
vt 0.538718 0.458027
vt 0.538232 0.456617
vt 0.538718 0.457748
vt 0.538566 0.444038
vt 0.535804 0.464913
vt 0.534920 0.443668
vt 0.536931 0.422701
vt 0.534178 0.401817
vt 0.534854 0.401829
vt 0.537461 0.435336
vt 0.533292 0.423070
vt 0.539095 0.431406
vt 0.535498 0.430441
vt 0.542682 0.408335
vt 0.542402 0.408334
vt 0.535674 0.462731
vt 0.538171 0.441437
vt 0.538216 0.462725
vt 0.535742 0.467145
vt 0.537757 0.462731
vt 0.537609 0.467145
vt 0.535666 0.422623
vt 0.538219 0.419656
vt 0.538208 0.422617
vt 0.541960 0.402061
vt 0.543146 0.398683
vt 0.543151 0.402065
vt 0.539263 0.425100
vt 0.538235 0.421630
vt 0.540064 0.421671
vt 0.542988 0.459135
vt 0.544577 0.453995
vt 0.544855 0.459135
vt 0.535589 0.403352
vt 0.538219 0.398678
vt 0.538131 0.403346
vt 0.544587 0.448022
vt 0.543385 0.453995
vt 0.543395 0.448022
vt 0.540820 0.445863
vt 0.542929 0.442101
vt 0.542988 0.445871
vt 0.538856 0.417184
vt 0.537234 0.449556
vt 0.538439 0.445069
vt 0.540129 0.449318
vt 0.540763 0.402450
vt 0.546096 0.400302
vt 0.545134 0.402423
vt 0.543527 0.464311
vt 0.547793 0.461454
vt 0.544491 0.466431
vt 0.544584 0.449371
vt 0.542947 0.451427
vt 0.535703 0.460330
vt 0.537746 0.466190
vt 0.533501 0.461222
vt 0.534920 0.412136
vt 0.537284 0.411923
vt 0.547498 0.406681
vt 0.550158 0.411203
vt 0.547795 0.411416
vt 0.540503 0.461249
vt 0.538896 0.463840
vt 0.538937 0.461249
vt 0.540762 0.466734
vt 0.540463 0.463840
vt 0.544914 0.427463
vt 0.543348 0.432216
vt 0.543347 0.427463
vt 0.544914 0.432216
vt 0.543271 0.435869
vt 0.541747 0.417419
vt 0.546194 0.417359
vt 0.544558 0.415305
vt 0.545894 0.460048
vt 0.548559 0.455521
vt 0.546192 0.455311
vt 0.545320 0.441876
vt 0.546512 0.435882
vt 0.546512 0.441889
vt 0.544502 0.442094
vt 0.543310 0.442094
vt 0.537328 0.406416
vt 0.539363 0.400552
vt 0.535129 0.405527
vt 0.533292 0.454611
vt 0.535658 0.454822
vt 0.540762 0.456717
vt 0.542975 0.451375
vt 0.542929 0.456724
vt 0.540807 0.451367
vt 0.535677 0.419662
vt 0.538134 0.409934
vt 0.535592 0.409940
vt 0.539147 0.464291
vt 0.549394 0.405273
vt 0.542988 0.465850
vt 0.545210 0.459135
vt 0.545530 0.465850
vt 0.545018 0.423049
vt 0.539162 0.427785
vt 0.537580 0.424641
vt 0.541954 0.404739
vt 0.543146 0.404744
vt 0.535626 0.424514
vt 0.537534 0.438955
vt 0.534036 0.440072
vt 0.538718 0.458191
vt 0.539538 0.456617
vt 0.539538 0.458189
vt 0.533871 0.436300
vt 0.535629 0.441443
vt 0.536595 0.428006
vt 0.538141 0.428498
vt 0.538073 0.430110
vt 0.535662 0.426670
vt 0.536521 0.429692
vt 0.542730 0.457041
vt 0.541164 0.458305
vt 0.541164 0.456617
vt 0.541164 0.458224
vt 0.540357 0.456630
vt 0.538564 0.464425
vt 0.537757 0.464411
vt 0.540357 0.456617
vt 0.539538 0.458210
vt 0.542634 0.441684
vt 0.538232 0.459159
vt 0.536495 0.464908
vt 0.535589 0.462731
vt 0.541954 0.398678
vt 0.535677 0.398685
vt 0.540762 0.442094
vt 0.538594 0.466734
vt 0.544838 0.435869
vt 0.545320 0.435869
vt 0.543343 0.459135
vt 0.543151 0.423049
vt 0.538718 0.456619
vt 0.542733 0.458654
vt 0.540357 0.458237
vt 0.538564 0.462746
vt 0.540357 0.458211
s 0
g scissor_blade_right_Material
usemtl Material
f 105/121/79 110/122/79 112/123/79
f 101/124/80 75/125/80 102/126/80
f 64/127/81 57/128/81 63/129/81
f 58/130/82 53/131/82 57/132/82
f 63/133/83 53/134/83 61/135/83
f 64/136/84 54/137/84 58/138/84
f 108/139/85 62/140/85 64/136/85
f 111/141/86 61/135/86 112/142/86
f 108/143/87 63/129/87 111/144/87
f 54/145/88 61/146/88 53/147/88
f 100/148/89 70/149/89 99/150/89
f 102/151/90 74/152/90 103/153/90
f 104/154/91 76/155/91 101/156/91
f 104/157/92 74/158/92 73/159/92
f 98/160/93 77/161/93 97/162/93
f 89/163/94 78/164/94 91/165/94
f 84/166/95 80/167/95 82/168/95
f 95/169/96 69/170/96 93/171/96
f 66/172/97 73/159/97 74/158/97
f 65/173/98 76/174/98 68/175/98
f 70/176/99 97/177/99 99/178/99
f 100/179/100 80/180/100 98/181/100
f 68/175/101 81/182/101 85/183/101
f 93/184/102 79/185/102 89/186/102
f 66/172/103 92/187/103 96/188/103
f 71/189/104 84/190/104 88/191/104
f 87/192/105 68/193/105 85/194/105
f 66/195/106 68/193/106 67/196/106
f 71/197/107 86/198/107 72/199/107
f 88/200/108 85/201/108 86/198/108
f 67/202/109 83/203/109 73/159/109
f 88/191/110 83/203/110 87/204/110
f 72/205/111 82/206/111 80/180/111
f 86/207/112 81/182/112 82/206/112
f 73/208/113 81/209/113 76/210/113
f 83/211/114 82/168/114 81/212/114
f 95/213/115 78/214/115 70/176/115
f 95/213/116 92/187/116 91/215/116
f 65/173/117 90/216/117 75/125/117
f 93/184/118 90/216/118 94/217/118
f 66/218/119 94/219/119 65/220/119
f 96/221/120 93/171/120 94/219/120
f 75/222/121 92/223/121 74/152/121
f 90/224/122 91/165/122 92/223/122
f 69/225/123 98/181/123 79/185/123
f 99/178/124 77/226/124 71/189/124
f 79/227/125 97/228/125 78/229/125
f 72/199/126 99/230/126 71/197/126
f 109/231/127 103/232/127 104/157/127
f 109/233/128 101/156/128 60/234/128
f 56/235/129 103/153/129 110/122/129
f 60/236/130 102/126/130 56/237/130
f 60/234/87 111/144/87 109/233/87
f 106/238/131 116/239/131 115/240/131
f 60/236/132 105/241/132 108/139/132
f 62/242/79 112/123/79 61/146/79
f 55/243/133 109/231/133 59/244/133
f 106/245/134 109/231/134 111/141/134
f 55/243/135 112/142/135 110/246/135
f 106/245/136 112/142/136 107/247/136
f 113/248/137 116/249/137 114/250/137
f 106/251/138 113/252/138 59/250/138
f 55/149/139 116/253/139 107/254/139
f 55/255/140 113/256/140 114/239/140
f 105/121/79 56/235/79 110/122/79
f 101/124/141 76/174/141 75/125/141
f 64/127/81 58/257/81 57/128/81
f 58/130/82 54/258/82 53/131/82
f 63/133/142 57/259/142 53/134/142
f 64/136/143 62/140/143 54/137/143
f 108/139/144 105/241/144 62/140/144
f 111/141/145 63/133/145 61/135/145
f 108/143/87 64/127/87 63/129/87
f 54/145/88 62/242/88 61/146/88
f 100/148/89 69/260/89 70/149/89
f 102/151/90 75/222/90 74/152/90
f 104/154/91 73/261/91 76/155/91
f 104/157/146 103/232/146 74/158/146
f 98/160/93 80/167/93 77/161/93
f 89/163/94 79/262/94 78/164/94
f 84/166/95 77/161/95 80/167/95
f 95/169/96 70/263/96 69/170/96
f 66/172/147 67/202/147 73/159/147
f 65/173/148 75/125/148 76/174/148
f 70/176/149 78/214/149 97/177/149
f 100/179/150 72/205/150 80/180/150
f 68/175/151 76/174/151 81/182/151
f 93/184/152 69/225/152 79/185/152
f 66/172/153 74/158/153 92/187/153
f 71/189/154 77/226/154 84/190/154
f 87/192/105 67/196/105 68/193/105
f 66/195/106 65/264/106 68/193/106
f 71/197/107 88/200/107 86/198/107
f 88/200/108 87/265/108 85/201/108
f 67/202/155 87/204/155 83/203/155
f 88/191/156 84/190/156 83/203/156
f 72/205/157 86/207/157 82/206/157
f 86/207/158 85/183/158 81/182/158
f 73/208/113 83/266/113 81/209/113
f 83/211/114 84/166/114 82/168/114
f 95/213/159 91/215/159 78/214/159
f 95/213/160 96/188/160 92/187/160
f 65/173/161 94/217/161 90/216/161
f 93/184/162 89/186/162 90/216/162
f 66/218/119 96/221/119 94/219/119
f 96/221/120 95/169/120 93/171/120
f 75/222/121 90/224/121 92/223/121
f 90/224/122 89/163/122 91/165/122
f 69/225/163 100/179/163 98/181/163
f 99/178/164 97/177/164 77/226/164
f 79/227/125 98/267/125 97/228/125
f 72/199/126 100/268/126 99/230/126
f 109/231/165 110/246/165 103/232/165
f 109/233/128 104/154/128 101/156/128
f 56/235/129 102/151/129 103/153/129
f 60/236/166 101/124/166 102/126/166
f 60/234/87 108/143/87 111/144/87
f 106/238/131 107/269/131 116/239/131
f 60/236/167 56/237/167 105/241/167
f 62/242/79 105/121/79 112/123/79
f 55/243/168 110/246/168 109/231/168
f 106/245/169 59/244/169 109/231/169
f 55/243/137 107/247/137 112/142/137
f 106/245/170 111/141/170 112/142/170
f 113/248/169 115/270/169 116/249/169
f 106/251/138 115/271/138 113/252/138
f 55/149/139 114/272/139 116/253/139
f 55/255/140 59/273/140 113/256/140
