# Blender 4.2.1 LTS
# www.blender.org
mtllib small_bottle_2.mtl
g small_bottle_2_Mesh
v -0.040090 0.005167 0.040091
v -0.035975 0.118675 0.035975
v -0.040090 0.005167 -0.040090
v -0.035975 0.118675 -0.035974
v 0.040090 0.005167 0.040091
v 0.035976 0.118675 0.035975
v 0.040090 0.005167 -0.040090
v 0.035976 0.118675 -0.035974
v 0.017598 0.005167 -0.052793
v -0.017598 0.005167 -0.052793
v -0.015791 0.118675 -0.047375
v 0.015792 0.118675 -0.047375
v -0.017598 0.005167 0.052794
v 0.017598 0.005167 0.052794
v 0.015792 0.118675 0.047375
v -0.015791 0.118675 0.047375
v -0.052794 0.005167 -0.017598
v -0.052794 0.005167 0.017598
v -0.047374 0.118675 0.015792
v -0.047374 0.118675 -0.015792
v 0.052794 0.005167 0.017598
v 0.052794 0.005167 -0.017598
v 0.047375 0.118675 -0.015792
v 0.047375 0.118675 0.015792
v 0.012204 0.144933 -0.012203
v 0.005357 0.144933 -0.016070
v -0.012204 0.144933 -0.012203
v -0.016070 0.144933 -0.005356
v -0.048565 -0.000000 0.016189
v -0.036879 -0.000000 0.036880
v -0.016188 -0.000000 -0.048565
v -0.036879 -0.000000 -0.036879
v 0.048565 -0.000000 -0.016189
v 0.036879 -0.000000 -0.036879
v 0.016188 -0.000000 0.048566
v 0.036879 -0.000000 0.036880
v 0.016188 -0.000000 -0.048565
v -0.016188 -0.000000 0.048566
v -0.016188 -0.000000 0.016189
v 0.016188 -0.000000 0.016189
v -0.048565 -0.000000 -0.016189
v 0.048565 -0.000000 0.016189
v -0.016188 -0.000000 -0.016189
v 0.016188 -0.000000 -0.016189
v 0.016071 0.144933 0.005357
v 0.012204 0.144933 0.012204
v -0.005357 0.144933 0.016071
v -0.012204 0.144933 0.012204
v -0.005357 0.144933 -0.016070
v 0.005357 0.144933 0.016071
v -0.016070 0.144933 0.005357
v 0.016071 0.144933 -0.005356
v -0.017036 0.146167 -0.005610
v -0.012909 0.146167 -0.012909
v 0.005611 0.146167 -0.017036
v 0.012909 0.146167 -0.012909
v 0.017036 0.146167 0.005611
v 0.012909 0.146167 0.012910
v -0.005611 0.146167 0.017037
v -0.012909 0.146167 0.012910
v -0.005611 0.146167 -0.017036
v 0.005611 0.146167 0.017037
v 0.012813 0.156358 -0.012813
v 0.005576 0.156360 -0.016904
v -0.017036 0.146167 0.005611
v 0.017036 0.146167 -0.005610
v -0.005576 0.156360 -0.016904
v -0.012814 0.156358 -0.012813
v -0.016904 0.156360 -0.005575
v -0.016904 0.156360 0.005576
v -0.012814 0.156358 0.012814
v -0.005576 0.156360 0.016905
v 0.016904 0.156360 0.005576
v 0.016904 0.156360 -0.005575
v 0.005576 0.156360 0.016905
v 0.012813 0.156358 0.012814
v 0.005357 0.159731 0.005357
v 0.004578 0.159679 0.013109
v -0.005357 0.159731 0.005357
v -0.004578 0.159679 0.013109
v 0.004578 0.159679 -0.013108
v 0.005357 0.159731 -0.005356
v -0.004578 0.159679 -0.013108
v -0.005357 0.159731 -0.005356
v 0.013108 0.159679 -0.004578
v 0.013108 0.159679 0.004579
v -0.013108 0.159679 -0.004578
v -0.013108 0.159679 0.004579
v -0.010029 0.159679 -0.010029
v 0.010029 0.159679 -0.010029
v 0.010029 0.159679 0.010030
v -0.010029 0.159679 0.010030
v -0.040240 0.108132 0.040240
v -0.040240 0.108132 -0.040239
v 0.040241 0.108132 -0.040239
v 0.040241 0.108132 0.040240
v 0.017664 0.108132 0.052991
v -0.017663 0.108132 0.052991
v -0.017663 0.108132 -0.052990
v 0.017664 0.108132 -0.052990
v 0.052991 0.108132 -0.017663
v 0.052991 0.108132 0.017663
v -0.052991 0.108132 0.017663
v -0.052991 0.108132 -0.017663
v 0.020007 0.138196 -0.006669
v -0.020007 0.138196 0.006670
v -0.015193 0.138196 0.015193
v -0.006669 0.138196 0.020008
v 0.006669 0.138196 0.020008
v -0.015193 0.138196 -0.015192
v -0.020007 0.138196 -0.006669
v 0.015193 0.138196 -0.015192
v 0.006669 0.138196 -0.020006
v -0.006669 0.138196 -0.020006
v 0.015193 0.138196 0.015193
v 0.020007 0.138196 0.006670
v -0.040953 0.035730 -0.040953
v 0.040954 0.035730 -0.040953
v 0.040954 0.035730 0.040954
v 0.017977 0.035730 0.053931
v -0.017977 0.035730 0.053931
v -0.017977 0.035730 -0.053931
v 0.017977 0.035730 -0.053931
v 0.053931 0.035730 -0.017977
v 0.053931 0.035730 0.017977
v -0.053931 0.035730 0.017977
v -0.053931 0.035730 -0.017977
v -0.040953 0.035730 0.040954
v -0.040340 0.099911 0.040341
v -0.040340 0.099911 -0.040339
v 0.040341 0.099911 -0.040339
v 0.040341 0.099911 0.040341
v 0.017708 0.099911 0.053124
v -0.017707 0.099911 0.053124
v -0.017707 0.099911 -0.053124
v 0.017708 0.099911 -0.053124
v 0.053123 0.099911 -0.017707
v 0.053123 0.099911 0.017707
v -0.053123 0.099911 0.017707
v -0.053123 0.099911 -0.017707
vn -0.7626 0.4827 -0.4307
vn 0.4307 0.4827 -0.7626
vn 0.7626 0.4827 0.4307
vn -0.4307 0.4827 0.7626
vn -0.0000 -0.6334 0.7738
vn -0.4209 0.5173 -0.7451
vn -0.8634 0.5045 -0.0000
vn 0.7451 0.5174 -0.4209
vn -0.6645 -0.6462 0.3753
vn 0.3753 -0.6462 0.6645
vn 0.4307 0.4827 0.7626
vn -0.0000 0.4701 0.8826
vn -0.4307 0.4827 -0.7626
vn -0.0000 0.4701 -0.8826
vn -0.0000 -0.6334 -0.7738
vn -0.3753 -0.6462 0.6645
vn 0.7738 -0.6334 -0.0000
vn 0.3753 -0.6463 -0.6645
vn -0.7451 0.5174 0.4208
vn -0.0000 0.5046 0.8634
vn -0.7451 0.5174 -0.4209
vn 0.4208 0.5174 -0.7451
vn -0.0000 0.5045 -0.8634
vn 0.7451 0.5174 0.4208
vn -0.7738 -0.6334 -0.0000
vn 0.6645 -0.6462 0.3753
vn 0.7626 0.4827 -0.4307
vn 0.8826 0.4701 -0.0000
vn -0.7626 0.4827 0.4307
vn -0.8826 0.4702 -0.0000
vn -0.0000 -1.0000 -0.0000
vn 0.6645 -0.6462 -0.3753
vn -0.3753 -0.6462 -0.6645
vn -0.6645 -0.6462 -0.3753
vn -0.4209 0.5174 0.7451
vn 0.8634 0.5045 -0.0000
vn 0.4208 0.5174 0.7451
vn 0.3882 -0.6148 -0.6866
vn -0.7875 -0.6163 -0.0000
vn -0.3874 -0.6162 -0.6858
vn -0.0000 -0.6161 0.7876
vn -0.6866 -0.6147 -0.3882
vn -0.6858 -0.6162 0.3873
vn -0.3882 -0.6147 0.6866
vn 0.7877 -0.6160 -0.0000
vn 0.3873 -0.6162 0.6858
vn 0.6866 -0.6147 0.3882
vn 0.6859 -0.6160 -0.3874
vn -0.0000 -0.6161 -0.7876
vn 0.4921 0.0128 -0.8704
vn -0.9999 0.0130 -0.0000
vn -0.4920 0.0130 -0.8705
vn -0.0000 0.0129 0.9999
vn -0.8704 0.0128 -0.4921
vn -0.8705 0.0130 0.4920
vn -0.4922 0.0128 0.8704
vn 0.9999 0.0129 -0.0000
vn 0.4920 0.0129 0.8705
vn -0.0040 1.0000 0.0070
vn 0.0070 1.0000 0.0040
vn -0.0000 1.0000 0.0066
vn -0.0000 1.0000 -0.0066
vn -0.0000 1.0000 -0.0000
vn 0.0070 1.0000 -0.0040
vn 0.0066 1.0000 -0.0000
vn -0.0040 1.0000 -0.0070
vn -0.0066 1.0000 -0.0000
vn -0.0000 0.0129 -0.9999
vn 0.8705 0.0129 -0.4920
vn 0.8704 0.0128 0.4921
vn -0.5732 0.7527 -0.3238
vn 0.3238 0.7527 -0.5732
vn 0.5732 0.7527 0.3238
vn -0.3238 0.7527 0.5732
vn -0.3243 0.7524 -0.5734
vn -0.0000 0.7527 -0.6583
vn 0.3243 0.7524 0.5734
vn -0.0000 0.7527 0.6583
vn -0.5734 0.7524 0.3242
vn -0.6583 0.7527 -0.0000
vn 0.5734 0.7524 -0.3243
vn 0.6583 0.7527 -0.0000
vn -0.9999 0.0161 -0.0000
vn -0.8706 0.0166 0.4917
vn 0.9999 0.0161 -0.0000
vn 0.8706 0.0166 -0.4917
vn -0.0000 0.0162 -0.9999
vn -0.4918 0.0166 -0.8706
vn -0.0000 0.0161 0.9999
vn 0.4917 0.0167 0.8706
vn -0.4917 0.0167 0.8706
vn 0.8706 0.0166 0.4917
vn 0.4918 0.0166 -0.8706
vn -0.8706 0.0166 -0.4917
vn 0.2792 0.8233 0.4942
vn 0.5807 0.8141 -0.0000
vn -0.2791 0.8233 0.4942
vn 0.4942 0.8233 0.2791
vn -0.0000 0.8141 -0.5807
vn 0.2792 0.8233 -0.4942
vn -0.4942 0.8233 -0.2791
vn -0.0000 0.8141 0.5807
vn -0.4942 0.8233 0.2791
vn 0.4942 0.8233 -0.2791
vn -0.5807 0.8141 -0.0000
vn -0.2791 0.8233 -0.4942
vn -0.8701 -0.0385 -0.4914
vn 0.4914 -0.0385 -0.8701
vn 0.8701 -0.0385 0.4914
vn -0.4914 -0.0384 0.8701
vn 0.4914 -0.0384 0.8701
vn -0.0000 -0.0371 0.9993
vn -0.4914 -0.0385 -0.8701
vn -0.0000 -0.0372 -0.9993
vn 0.8701 -0.0385 -0.4914
vn 0.9993 -0.0372 -0.0000
vn -0.8701 -0.0385 0.4914
vn -0.9993 -0.0372 -0.0000
vn -0.8706 0.0130 -0.4918
vn 0.4917 0.0130 -0.8706
vn 0.8706 0.0130 0.4917
vn -0.4917 0.0130 0.8707
vn 0.4917 0.0130 0.8707
vn -0.0000 0.0126 0.9999
vn -0.4917 0.0130 -0.8706
vn -0.0000 0.0126 -0.9999
vn 0.8706 0.0130 -0.4918
vn 0.9999 0.0126 -0.0000
vn -0.8706 0.0130 0.4917
vn -0.9999 0.0126 -0.0000
vn 0.4307 0.4826 -0.7626
vn -0.4208 0.5174 -0.7451
vn 0.7451 0.5174 -0.4208
vn 0.3753 -0.6463 0.6645
vn -0.4307 0.4826 -0.7626
vn 0.3753 -0.6462 -0.6645
vn -0.7451 0.5174 0.4209
vn -0.7451 0.5174 -0.4208
vn 0.4209 0.5174 -0.7451
vn 0.7451 0.5174 0.4209
vn 0.4209 0.5174 0.7451
vn 0.3873 -0.6162 -0.6858
vn -0.3882 -0.6147 -0.6866
vn -0.6858 -0.6162 -0.3873
vn -0.6866 -0.6147 0.3882
vn -0.3874 -0.6162 0.6858
vn 0.3882 -0.6147 0.6866
vn 0.6859 -0.6160 0.3874
vn 0.6866 -0.6147 -0.3882
vn 0.4920 0.0129 -0.8705
vn -0.4922 0.0128 -0.8704
vn -0.8705 0.0130 -0.4920
vn -0.8704 0.0128 0.4921
vn -0.4920 0.0129 0.8705
vn 0.4921 0.0128 0.8704
vn -0.0070 1.0000 0.0040
vn 0.0040 1.0000 0.0070
vn 0.0040 1.0000 -0.0070
vn -0.0070 1.0000 -0.0040
vn 0.8704 0.0128 -0.4921
vn 0.8705 0.0129 0.4920
vn -0.5734 0.7524 -0.3243
vn 0.3243 0.7524 -0.5734
vn 0.5734 0.7524 0.3243
vn -0.3242 0.7524 0.5734
vn -0.3238 0.7527 -0.5732
vn 0.3238 0.7527 0.5732
vn -0.5732 0.7527 0.3238
vn 0.5732 0.7527 -0.3238
vn -0.8706 0.0167 0.4917
vn 0.8706 0.0167 -0.4917
vn -0.4917 0.0168 -0.8706
vn 0.4917 0.0166 0.8706
vn 0.8706 0.0167 0.4917
vn 0.4917 0.0167 -0.8706
vn -0.8706 0.0167 -0.4917
vn 0.2791 0.8233 0.4942
vn -0.2792 0.8233 0.4942
vn 0.2791 0.8233 -0.4942
vn -0.2792 0.8233 -0.4942
vn 0.4914 -0.0384 -0.8701
vn -0.4914 -0.0384 -0.8701
vn 0.4918 0.0130 -0.8706
vn 0.8707 0.0130 0.4917
vn -0.4918 0.0130 -0.8706
vn 0.8706 0.0130 -0.4917
vn -0.8707 0.0130 0.4917
vt 0.550909 0.516131
vt 0.535227 0.526930
vt 0.531574 0.514415
vt 0.550121 0.513064
vt 0.534438 0.526043
vt 0.530785 0.512859
vt 0.550709 0.516906
vt 0.535026 0.527706
vt 0.531373 0.515190
vt 0.550309 0.513451
vt 0.534625 0.526430
vt 0.530973 0.513246
vt 0.549391 0.510864
vt 0.578327 0.504301
vt 0.579534 0.510864
vt 0.573447 0.545815
vt 0.581590 0.556627
vt 0.572422 0.556724
vt 0.574236 0.545598
vt 0.558864 0.555948
vt 0.557838 0.545598
vt 0.574035 0.546374
vt 0.582177 0.555909
vt 0.573009 0.556723
vt 0.579747 0.512278
vt 0.596261 0.503721
vt 0.599011 0.510568
vt 0.596048 0.504114
vt 0.598798 0.510660
vt 0.596248 0.526430
vt 0.580565 0.513451
vt 0.599901 0.513246
vt 0.578961 0.526613
vt 0.596060 0.526043
vt 0.580377 0.513064
vt 0.599713 0.512859
vt 0.551724 0.526226
vt 0.579347 0.511252
vt 0.550411 0.504690
vt 0.578140 0.504690
vt 0.532877 0.504114
vt 0.550598 0.504302
vt 0.549403 0.511502
vt 0.578340 0.504519
vt 0.579547 0.511502
vt 0.549203 0.511252
vt 0.532690 0.504502
vt 0.582377 0.555134
vt 0.573210 0.555948
vt 0.557239 0.546202
vt 0.572609 0.557112
vt 0.558264 0.557112
vt 0.549697 0.555134
vt 0.547360 0.544668
vt 0.557051 0.545815
vt 0.548909 0.556627
vt 0.546572 0.545704
vt 0.558077 0.556724
vt 0.557638 0.546374
vt 0.549496 0.555909
vt 0.547160 0.545444
vt 0.549603 0.512278
vt 0.578540 0.505294
vt 0.532889 0.502946
vt 0.550610 0.504519
vt 0.596647 0.527706
vt 0.580965 0.516906
vt 0.600300 0.515190
vt 0.552312 0.529240
vt 0.596847 0.526930
vt 0.581164 0.516131
vt 0.600500 0.514415
vt 0.579562 0.528465
vt 0.561414 0.518267
vt 0.556150 0.523531
vt 0.553178 0.518267
vt 0.561414 0.510031
vt 0.556150 0.504767
vt 0.561414 0.501794
vt 0.553178 0.510031
vt 0.577887 0.518267
vt 0.569651 0.510031
vt 0.577887 0.510031
vt 0.569651 0.518267
vt 0.574914 0.504767
vt 0.569651 0.501794
vt 0.574914 0.523531
vt 0.569651 0.526504
vt 0.596060 0.502946
vt 0.598810 0.509793
vt 0.595861 0.504502
vt 0.598610 0.511048
vt 0.533090 0.503721
vt 0.550810 0.505294
vt 0.549096 0.557015
vt 0.546760 0.546091
vt 0.558663 0.556723
vt 0.573635 0.546202
vt 0.581777 0.557015
vt 0.455288 0.320626
vt 0.453133 0.320004
vt 0.455519 0.320029
vt 0.452905 0.320563
vt 0.449320 0.319929
vt 0.452988 0.319929
vt 0.447309 0.320626
vt 0.449464 0.320004
vt 0.449547 0.320602
vt 0.449545 0.320677
vt 0.453130 0.320079
vt 0.453047 0.320677
vt 0.455143 0.320762
vt 0.455373 0.320141
vt 0.447164 0.320762
vt 0.449402 0.320563
vt 0.455285 0.320701
vt 0.455516 0.320104
vt 0.449550 0.320563
vt 0.453135 0.319929
vt 0.453052 0.320563
vt 0.447307 0.320701
vt 0.449462 0.320079
vt 0.455291 0.320762
vt 0.455521 0.320141
vt 0.447312 0.320762
vt 0.449467 0.319929
vt 0.453050 0.320602
vt 0.455487 0.317736
vt 0.452976 0.317669
vt 0.447110 0.317736
vt 0.449476 0.317710
vt 0.453119 0.317785
vt 0.455342 0.317880
vt 0.446965 0.317880
vt 0.449331 0.317669
vt 0.455485 0.317811
vt 0.449479 0.317669
vt 0.453124 0.317669
vt 0.447107 0.317811
vt 0.449473 0.317785
vt 0.449635 0.320485
vt 0.448108 0.322013
vt 0.447101 0.320231
vt 0.449635 0.316983
vt 0.448108 0.315456
vt 0.449890 0.314449
vt 0.447101 0.317238
vt 0.455672 0.320231
vt 0.453138 0.316983
vt 0.455672 0.317238
vt 0.453138 0.320485
vt 0.454665 0.315456
vt 0.452883 0.314449
vt 0.454665 0.322013
vt 0.452883 0.323019
vt 0.453121 0.317710
vt 0.447113 0.317880
vt 0.455490 0.317880
vt 0.453209 0.324260
vt 0.454577 0.316159
vt 0.452795 0.316140
vt 0.449564 0.313208
vt 0.454575 0.316234
vt 0.452793 0.316215
vt 0.448020 0.316159
vt 0.449802 0.316140
vt 0.448018 0.316234
vt 0.449800 0.316215
vt 0.449564 0.324260
vt 0.447198 0.322923
vt 0.452650 0.316290
vt 0.449657 0.316290
vt 0.453209 0.313208
vt 0.455575 0.314546
vt 0.449805 0.316290
vt 0.550871 0.505942
vt 0.581202 0.505942
vt 0.600587 0.504222
vt 0.550671 0.506717
vt 0.581002 0.506717
vt 0.600385 0.504997
vt 0.550083 0.502733
vt 0.580415 0.502733
vt 0.599799 0.502528
vt 0.580602 0.503120
vt 0.550271 0.503120
vt 0.599986 0.502915
vt 0.530887 0.502915
vt 0.531287 0.504997
vt 0.530699 0.502528
vt 0.531488 0.504222
vt 0.584114 0.546091
vt 0.551912 0.526613
vt 0.588399 0.528993
vt 0.571866 0.513739
vt 0.588399 0.509141
vt 0.578774 0.526226
vt 0.554634 0.509916
vt 0.571166 0.525170
vt 0.554633 0.529767
vt 0.553926 0.528993
vt 0.570459 0.513739
vt 0.570459 0.525773
vt 0.589106 0.509916
vt 0.572573 0.525169
vt 0.572573 0.513136
vt 0.552512 0.528465
vt 0.583926 0.545704
vt 0.548441 0.527892
vt 0.530340 0.510568
vt 0.548041 0.526571
vt 0.529940 0.511048
vt 0.548241 0.527117
vt 0.530139 0.509793
vt 0.548229 0.526182
vt 0.530127 0.510660
vt 0.580696 0.526182
vt 0.580509 0.526571
vt 0.580709 0.527117
vt 0.580908 0.527892
vt 0.447007 0.307790
vt 0.441840 0.324509
vt 0.441154 0.307539
vt 0.446970 0.307604
vt 0.441802 0.324801
vt 0.441116 0.307574
vt 0.447010 0.307811
vt 0.441843 0.324530
vt 0.441156 0.307560
vt 0.446843 0.307604
vt 0.441675 0.324801
vt 0.440989 0.307574
vt 0.461170 0.324801
vt 0.456002 0.307604
vt 0.461856 0.307574
vt 0.455701 0.324829
vt 0.461297 0.324801
vt 0.456129 0.307604
vt 0.461983 0.307574
vt 0.455828 0.324829
vt 0.461337 0.324530
vt 0.456170 0.307811
vt 0.462023 0.307560
vt 0.455868 0.324765
vt 0.461334 0.324509
vt 0.456167 0.307790
vt 0.462021 0.307539
vt 0.447308 0.324744
vt 0.584513 0.545444
vt 0.584713 0.544668
vt 0.579362 0.529240
vt 0.561414 0.526504
vt 0.447079 0.320029
vt 0.446934 0.320141
vt 0.447076 0.320104
vt 0.447081 0.320141
vt 0.449890 0.323019
vt 0.455575 0.322923
vt 0.447198 0.314546
vt 0.452798 0.316290
vt 0.571867 0.525772
vt 0.571166 0.513136
vt 0.553926 0.509141
vt 0.589107 0.529767
vt 0.527693 0.526051
vt 0.527292 0.526351
vt 0.527492 0.525276
vt 0.527480 0.525963
vt 0.601445 0.525963
vt 0.601258 0.526351
vt 0.601457 0.525276
vt 0.601658 0.526051
vt 0.447271 0.324829
vt 0.447311 0.324765
vt 0.447144 0.324829
vt 0.455865 0.324744
s 0
g small_bottle_2_Material
usemtl Material
f 104/1/1 4/2/1 94/3/1
f 100/4/2 8/5/2 95/6/2
f 102/7/3 6/8/3 96/9/3
f 98/10/4 2/11/4 93/12/4
f 13/13/5 35/14/5 14/15/5
f 114/16/6 27/17/6 49/18/6
f 106/19/7 28/20/7 111/21/7
f 105/22/8 25/23/8 52/24/8
f 18/25/9 30/26/9 1/27/9
f 14/15/10 36/28/10 5/29/10
f 6/30/11 97/31/11 96/32/11
f 15/33/12 98/10/12 97/31/12
f 4/34/13 99/35/13 94/36/13
f 99/35/14 12/37/14 100/4/14
f 10/38/15 37/39/15 31/40/15
f 13/13/16 30/41/16 38/42/16
f 21/43/17 33/44/17 22/45/17
f 9/46/18 34/47/18 37/39/18
f 106/19/19 48/48/19 51/49/19
f 108/50/20 50/51/20 47/52/20
f 111/21/21 27/53/21 110/54/21
f 113/55/22 25/56/22 112/57/22
f 114/16/23 26/58/23 113/55/23
f 116/59/24 46/60/24 115/61/24
f 17/62/25 29/63/25 18/25/25
f 21/43/26 36/64/26 42/65/26
f 8/66/27 101/67/27 95/68/27
f 101/67/28 24/69/28 102/7/28
f 2/70/29 103/71/29 93/72/29
f 19/73/30 104/1/30 103/71/30
f 40/74/31 36/75/31 35/76/31
f 39/77/31 30/78/31 29/79/31
f 40/74/31 38/80/31 39/77/31
f 37/81/31 43/82/31 31/83/31
f 44/84/31 39/77/31 43/82/31
f 32/85/31 43/82/31 41/86/31
f 43/82/31 29/79/31 41/86/31
f 34/87/31 44/84/31 37/81/31
f 33/88/31 40/74/31 44/84/31
f 22/45/32 34/89/32 7/90/32
f 10/38/33 32/91/33 3/92/33
f 17/62/34 32/93/34 41/94/34
f 108/50/35 48/95/35 107/96/35
f 105/22/36 45/97/36 116/59/36
f 109/98/37 46/99/37 50/51/37
f 25/100/38 55/101/38 56/102/38
f 28/103/39 65/104/39 53/105/39
f 27/106/40 61/107/40 49/108/40
f 50/109/41 59/110/41 47/111/41
f 27/112/42 53/105/42 54/113/42
f 48/114/43 65/104/43 51/115/43
f 48/116/44 59/110/44 60/117/44
f 52/118/45 57/119/45 45/120/45
f 46/121/46 62/122/46 50/109/46
f 46/123/47 57/119/47 58/124/47
f 25/125/48 66/126/48 52/118/48
f 26/127/49 61/107/49 55/101/49
f 55/101/50 63/128/50 56/102/50
f 65/104/51 69/129/51 53/105/51
f 61/107/52 68/130/52 67/131/52
f 62/122/53 72/132/53 59/110/53
f 53/105/54 68/133/54 54/113/54
f 65/104/55 71/134/55 70/135/55
f 59/110/56 71/136/56 60/117/56
f 57/119/57 74/137/57 73/138/57
f 62/122/58 76/139/58 75/140/58
f 79/141/59 92/142/59 80/143/59
f 77/144/60 91/145/60 86/146/60
f 77/144/61 80/143/61 78/147/61
f 83/148/62 82/149/62 81/150/62
f 84/151/63 77/144/63 82/149/63
f 90/152/64 82/149/64 85/153/64
f 82/149/65 86/146/65 85/153/65
f 89/154/66 84/151/66 83/148/66
f 87/155/67 79/141/67 84/151/67
f 55/101/68 67/131/68 64/156/68
f 66/126/69 63/157/69 74/137/69
f 57/119/70 76/158/70 58/124/70
f 89/154/71 69/159/71 87/155/71
f 90/160/72 64/156/72 81/161/72
f 91/145/73 73/162/73 86/146/73
f 92/163/74 72/132/74 80/164/74
f 89/165/75 67/131/75 68/130/75
f 81/161/76 67/131/76 83/166/76
f 91/167/77 75/140/77 76/139/77
f 78/168/78 72/132/78 75/140/78
f 92/142/79 70/169/79 71/170/79
f 87/171/80 70/135/80 88/172/80
f 90/152/81 74/173/81 63/174/81
f 85/175/82 73/138/82 74/137/82
f 103/71/83 140/176/83 139/177/83
f 93/72/84 139/177/84 129/178/84
f 101/67/85 138/179/85 137/180/85
f 95/68/86 137/180/86 131/181/86
f 99/35/87 136/182/87 135/183/87
f 94/36/88 135/183/88 130/184/88
f 133/185/89 98/10/89 134/186/89
f 96/32/90 133/185/90 132/187/90
f 134/186/91 93/12/91 129/188/91
f 138/179/92 96/9/92 132/189/92
f 136/182/93 95/6/93 131/190/93
f 140/176/94 94/3/94 130/191/94
f 15/33/95 115/192/95 109/98/95
f 24/69/96 105/22/96 116/59/96
f 16/193/97 107/96/97 2/11/97
f 24/194/98 115/195/98 6/196/98
f 11/197/99 113/55/99 12/37/99
f 12/37/100 112/57/100 8/5/100
f 20/198/101 110/199/101 4/200/101
f 16/193/102 109/98/102 108/50/102
f 19/201/103 107/202/103 106/203/103
f 23/204/104 112/205/104 105/206/104
f 19/73/105 111/21/105 20/207/105
f 11/197/106 110/208/106 114/16/106
f 127/209/107 3/210/107 17/62/107
f 123/211/108 7/212/108 9/46/108
f 125/213/109 5/214/109 21/43/109
f 121/215/110 1/216/110 13/13/110
f 5/29/111 120/217/111 14/15/111
f 14/15/112 121/215/112 13/13/112
f 3/92/113 122/218/113 10/38/113
f 122/218/114 9/46/114 10/38/114
f 7/90/115 124/219/115 22/45/115
f 124/219/116 21/43/116 22/45/116
f 1/27/117 126/220/117 18/25/117
f 126/220/118 17/62/118 18/25/118
f 127/221/119 130/222/119 117/223/119
f 123/224/120 131/225/120 118/226/120
f 125/227/121 132/228/121 119/229/121
f 121/230/122 129/231/122 128/232/122
f 132/233/123 120/234/123 119/235/123
f 133/236/124 121/230/124 120/234/124
f 130/237/125 122/238/125 117/239/125
f 135/240/126 123/224/126 122/238/126
f 131/241/127 124/242/127 118/243/127
f 137/244/128 125/227/128 124/242/128
f 129/245/129 126/246/129 128/247/129
f 126/246/130 140/248/130 127/221/130
f 104/1/1 20/207/1 4/2/1
f 100/4/131 12/37/131 8/5/131
f 102/7/3 24/69/3 6/8/3
f 98/10/4 16/193/4 2/11/4
f 13/13/5 38/42/5 35/14/5
f 114/16/132 110/208/132 27/17/132
f 106/19/7 51/49/7 28/20/7
f 105/22/133 112/249/133 25/23/133
f 18/25/9 29/63/9 30/26/9
f 14/15/134 35/14/134 36/28/134
f 6/30/11 15/33/11 97/31/11
f 15/33/12 16/193/12 98/10/12
f 4/34/135 11/197/135 99/35/135
f 99/35/14 11/197/14 12/37/14
f 10/38/15 9/46/15 37/39/15
f 13/13/16 1/216/16 30/41/16
f 21/43/17 42/65/17 33/44/17
f 9/46/136 7/212/136 34/47/136
f 106/19/137 107/250/137 48/48/137
f 108/50/20 109/98/20 50/51/20
f 111/21/138 28/20/138 27/53/138
f 113/55/139 26/58/139 25/56/139
f 114/16/23 49/18/23 26/58/23
f 116/59/140 45/97/140 46/60/140
f 17/62/25 41/94/25 29/63/25
f 21/43/26 5/214/26 36/64/26
f 8/66/27 23/251/27 101/67/27
f 101/67/28 23/251/28 24/69/28
f 2/70/29 19/73/29 103/71/29
f 19/73/30 20/207/30 104/1/30
f 40/74/31 42/252/31 36/75/31
f 39/77/31 38/80/31 30/78/31
f 40/74/31 35/76/31 38/80/31
f 37/81/31 44/84/31 43/82/31
f 44/84/31 40/74/31 39/77/31
f 32/85/31 31/83/31 43/82/31
f 43/82/31 39/77/31 29/79/31
f 34/87/31 33/88/31 44/84/31
f 33/88/31 42/252/31 40/74/31
f 22/45/32 33/44/32 34/89/32
f 10/38/33 31/40/33 32/91/33
f 17/62/34 3/210/34 32/93/34
f 108/50/35 47/52/35 48/95/35
f 105/22/36 52/24/36 45/97/36
f 109/98/141 115/192/141 46/99/141
f 25/100/142 26/127/142 55/101/142
f 28/103/39 51/115/39 65/104/39
f 27/106/143 54/253/143 61/107/143
f 50/109/41 62/122/41 59/110/41
f 27/112/144 28/103/144 53/105/144
f 48/114/145 60/254/145 65/104/145
f 48/116/146 47/111/146 59/110/146
f 52/118/45 66/126/45 57/119/45
f 46/121/147 58/255/147 62/122/147
f 46/123/148 45/120/148 57/119/148
f 25/125/149 56/256/149 66/126/149
f 26/127/49 49/108/49 61/107/49
f 55/101/150 64/156/150 63/128/150
f 65/104/51 70/135/51 69/129/51
f 61/107/151 54/253/151 68/130/151
f 62/122/53 75/140/53 72/132/53
f 53/105/152 69/129/152 68/133/152
f 65/104/153 60/254/153 71/134/153
f 59/110/154 72/132/154 71/136/154
f 57/119/57 66/126/57 74/137/57
f 62/122/155 58/255/155 76/139/155
f 79/141/156 88/257/156 92/142/156
f 77/144/157 78/147/157 91/145/157
f 77/144/61 79/141/61 80/143/61
f 83/148/62 84/151/62 82/149/62
f 84/151/63 79/141/63 77/144/63
f 90/152/158 81/150/158 82/149/158
f 82/149/65 77/144/65 86/146/65
f 89/154/159 87/155/159 84/151/159
f 87/155/67 88/257/67 79/141/67
f 55/101/68 61/107/68 67/131/68
f 66/126/160 56/256/160 63/157/160
f 57/119/161 73/138/161 76/158/161
f 89/154/162 68/258/162 69/159/162
f 90/160/163 63/128/163 64/156/163
f 91/145/164 76/259/164 73/162/164
f 92/163/165 71/136/165 72/132/165
f 89/165/166 83/166/166 67/131/166
f 81/161/76 64/156/76 67/131/76
f 91/167/167 78/168/167 75/140/167
f 78/168/78 80/164/78 72/132/78
f 92/142/168 88/257/168 70/169/168
f 87/171/80 69/129/80 70/135/80
f 90/152/169 85/153/169 74/173/169
f 85/175/82 86/260/82 73/138/82
f 103/71/83 104/1/83 140/176/83
f 93/72/170 103/71/170 139/177/170
f 101/67/85 102/7/85 138/179/85
f 95/68/171 101/67/171 137/180/171
f 99/35/87 100/4/87 136/182/87
f 94/36/172 99/35/172 135/183/172
f 133/185/89 97/31/89 98/10/89
f 96/32/173 97/31/173 133/185/173
f 134/186/91 98/10/91 93/12/91
f 138/179/174 102/7/174 96/9/174
f 136/182/175 100/4/175 95/6/175
f 140/176/176 104/1/176 94/3/176
f 15/33/177 6/30/177 115/192/177
f 24/69/96 23/251/96 105/22/96
f 16/193/178 108/50/178 107/96/178
f 24/194/98 116/261/98 115/195/98
f 11/197/99 114/16/99 113/55/99
f 12/37/179 113/55/179 112/57/179
f 20/198/101 111/262/101 110/199/101
f 16/193/102 15/33/102 109/98/102
f 19/201/103 2/263/103 107/202/103
f 23/204/104 8/264/104 112/205/104
f 19/73/105 106/19/105 111/21/105
f 11/197/180 4/34/180 110/208/180
f 127/209/107 117/265/107 3/210/107
f 123/211/181 118/266/181 7/212/181
f 125/213/109 119/267/109 5/214/109
f 121/215/110 128/268/110 1/216/110
f 5/29/111 119/269/111 120/217/111
f 14/15/112 120/217/112 121/215/112
f 3/92/182 117/270/182 122/218/182
f 122/218/114 123/211/114 9/46/114
f 7/90/115 118/271/115 124/219/115
f 124/219/116 125/213/116 21/43/116
f 1/27/117 128/272/117 126/220/117
f 126/220/118 127/209/118 17/62/118
f 127/221/119 140/248/119 130/222/119
f 123/224/183 136/273/183 131/225/183
f 125/227/184 138/274/184 132/228/184
f 121/230/122 134/275/122 129/231/122
f 132/233/123 133/236/123 120/234/123
f 133/236/124 134/275/124 121/230/124
f 130/237/185 135/240/185 122/238/185
f 135/240/126 136/273/126 123/224/126
f 131/241/186 137/244/186 124/242/186
f 137/244/128 138/274/128 125/227/128
f 129/245/187 139/276/187 126/246/187
f 126/246/130 139/276/130 140/248/130
