# Blender 4.2.1 LTS
# www.blender.org
mtllib small_bottle_tall_2.mtl
g small_bottle_tall_2_Mesh
v -0.027750 0.005250 0.027751
v -0.024902 0.138566 0.024902
v -0.027750 0.005250 -0.027750
v -0.024902 0.138566 -0.024901
v 0.027751 0.005250 0.027751
v 0.024903 0.138566 0.024902
v 0.027751 0.005250 -0.027750
v 0.024903 0.138566 -0.024901
v 0.012182 0.005250 -0.036544
v -0.012181 0.005250 -0.036544
v -0.010931 0.138566 -0.032793
v 0.010931 0.138566 -0.032793
v -0.012181 0.005250 0.036544
v 0.012182 0.005250 0.036544
v 0.010931 0.138566 0.032793
v -0.010931 0.138566 0.032793
v -0.036544 0.005250 -0.012181
v -0.036544 0.005250 0.012181
v -0.032793 0.138566 0.010931
v -0.032793 0.138566 -0.010931
v 0.036544 0.005250 0.012181
v 0.036544 0.005250 -0.012181
v 0.032793 0.138566 -0.010931
v 0.032793 0.138566 0.010931
v 0.013207 0.163509 -0.013206
v 0.005797 0.163509 -0.017391
v -0.013207 0.163509 -0.013206
v -0.017391 0.163509 -0.005797
v -0.033617 -0.000000 0.011206
v -0.025528 -0.000000 0.025528
v -0.011206 -0.000000 -0.033617
v -0.025528 -0.000000 -0.025528
v 0.033617 -0.000000 -0.011206
v 0.025528 -0.000000 -0.025528
v 0.011206 -0.000000 0.033617
v 0.025528 -0.000000 0.025528
v 0.011206 -0.000000 -0.033617
v -0.011206 -0.000000 0.033617
v -0.011206 -0.000000 0.011206
v 0.011206 -0.000000 0.011206
v -0.033617 -0.000000 -0.011206
v 0.033617 -0.000000 0.011206
v -0.011206 -0.000000 -0.011206
v 0.011206 -0.000000 -0.011206
v 0.017392 0.163509 0.005798
v 0.013207 0.163509 0.013207
v -0.005797 0.163509 0.017392
v -0.013207 0.163509 0.013207
v -0.005797 0.163509 -0.017391
v 0.005797 0.163509 0.017392
v -0.017391 0.163509 0.005798
v 0.017392 0.163509 -0.005797
v -0.018437 0.165469 -0.006071
v -0.013971 0.165469 -0.013970
v 0.006072 0.165469 -0.018436
v 0.013971 0.165469 -0.013970
v 0.018436 0.165469 0.006072
v 0.013971 0.165469 0.013971
v -0.006072 0.165469 0.018437
v -0.013971 0.165469 0.013971
v -0.006072 0.165469 -0.018436
v 0.006072 0.165469 0.018437
v 0.013867 0.173065 -0.013866
v 0.006034 0.173069 -0.018293
v -0.018437 0.165469 0.006072
v 0.018436 0.165469 -0.006071
v -0.006034 0.173069 -0.018293
v -0.013867 0.173065 -0.013866
v -0.018294 0.173069 -0.006034
v -0.018294 0.173069 0.006034
v -0.013867 0.173065 0.013867
v -0.006034 0.173069 0.018294
v 0.018294 0.173069 0.006034
v 0.018294 0.173069 -0.006034
v 0.006034 0.173069 0.018294
v 0.013867 0.173065 0.013867
v 0.005797 0.178423 0.005798
v 0.004954 0.178342 0.014187
v -0.005797 0.178423 0.005798
v -0.004955 0.178342 0.014187
v 0.004954 0.178342 -0.014186
v 0.005797 0.178423 -0.005797
v -0.004955 0.178342 -0.014186
v -0.005797 0.178423 -0.005797
v 0.014186 0.178342 -0.004954
v 0.014186 0.178342 0.004955
v -0.014186 0.178342 -0.004954
v -0.014186 0.178342 0.004955
v -0.010854 0.178342 -0.010854
v 0.010854 0.178342 -0.010854
v 0.010854 0.178342 0.010854
v -0.010854 0.178342 0.010854
v -0.027854 0.127854 0.027854
v -0.027854 0.127854 -0.027854
v 0.027855 0.127854 -0.027854
v 0.027855 0.127854 0.027854
v 0.012227 0.127854 0.036680
v -0.012226 0.127854 0.036680
v -0.012226 0.127854 -0.036680
v 0.012227 0.127854 -0.036680
v 0.036680 0.127854 -0.012227
v 0.036680 0.127854 0.012227
v -0.036680 0.127854 0.012227
v -0.036680 0.127854 -0.012227
v 0.019878 0.154644 -0.006626
v -0.019878 0.154644 0.006627
v -0.015095 0.154644 0.015095
v -0.006626 0.154644 0.019879
v 0.006626 0.154644 0.019879
v -0.015095 0.154644 -0.015094
v -0.019878 0.154644 -0.006626
v 0.015095 0.154644 -0.015094
v 0.006626 0.154644 -0.019878
v -0.006626 0.154644 -0.019878
v 0.015095 0.154644 0.015095
v 0.019878 0.154644 0.006627
v -0.028348 0.054289 -0.028348
v 0.028348 0.054289 -0.028348
v 0.028348 0.054289 0.028348
v 0.012444 0.054289 0.037331
v -0.012443 0.054289 0.037331
v -0.012443 0.054289 -0.037331
v 0.012444 0.054289 -0.037331
v 0.037331 0.054289 -0.012444
v 0.037331 0.054289 0.012444
v -0.037331 0.054289 0.012444
v -0.037331 0.054289 -0.012444
v -0.028348 0.054289 0.028348
v -0.027924 0.119501 0.027924
v -0.027924 0.119501 -0.027923
v 0.027924 0.119501 -0.027923
v 0.027924 0.119501 0.027924
v 0.012257 0.119501 0.036772
v -0.012257 0.119501 0.036772
v -0.012257 0.119501 -0.036772
v 0.012257 0.119501 -0.036772
v 0.036772 0.119501 -0.012257
v 0.036772 0.119501 0.012257
v -0.036772 0.119501 0.012257
v -0.036772 0.119501 -0.012257
vn -0.8152 0.3515 -0.4604
vn 0.4604 0.3515 -0.8152
vn 0.8152 0.3515 0.4604
vn -0.4604 0.3515 0.8152
vn -0.0000 -0.4870 0.8734
vn -0.4723 0.2787 -0.8362
vn -0.9628 0.2700 -0.0000
vn 0.8362 0.2787 -0.4723
vn -0.7542 -0.4997 0.4260
vn 0.4260 -0.4997 0.7542
vn 0.4604 0.3515 0.8152
vn -0.0000 0.3411 0.9400
vn -0.4604 0.3515 -0.8152
vn -0.0000 0.3411 -0.9400
vn -0.0000 -0.4870 -0.8734
vn -0.4259 -0.4997 0.7542
vn 0.8734 -0.4870 -0.0000
vn 0.4259 -0.4997 -0.7542
vn -0.8362 0.2787 0.4723
vn -0.0000 0.2701 0.9628
vn -0.8362 0.2787 -0.4723
vn 0.4723 0.2787 -0.8362
vn -0.0000 0.2700 -0.9629
vn 0.8362 0.2787 0.4723
vn -0.8734 -0.4870 -0.0000
vn 0.7542 -0.4997 0.4260
vn 0.8152 0.3515 -0.4604
vn 0.9400 0.3411 -0.0000
vn -0.8152 0.3515 0.4604
vn -0.9400 0.3411 -0.0000
vn -0.0000 -1.0000 -0.0000
vn 0.7542 -0.4997 -0.4260
vn -0.4260 -0.4997 -0.7542
vn -0.7542 -0.4997 -0.4260
vn -0.4723 0.2787 0.8362
vn 0.9628 0.2700 -0.0000
vn 0.4723 0.2787 0.8362
vn 0.4347 -0.4689 -0.7688
vn -0.8824 -0.4704 -0.0000
vn -0.4340 -0.4703 -0.7684
vn -0.0000 -0.4703 0.8825
vn -0.7688 -0.4690 -0.4347
vn -0.7684 -0.4704 0.4340
vn -0.4347 -0.4689 0.7688
vn 0.8826 -0.4702 -0.0000
vn 0.4340 -0.4703 0.7684
vn 0.7689 -0.4689 0.4347
vn 0.7685 -0.4702 -0.4341
vn -0.0000 -0.4703 -0.8825
vn 0.4921 0.0186 -0.8703
vn -0.9998 0.0188 -0.0000
vn -0.4920 0.0188 -0.8704
vn -0.0000 0.0188 0.9998
vn -0.8703 0.0186 -0.4921
vn -0.8704 0.0188 0.4919
vn -0.4921 0.0185 0.8703
vn 0.9998 0.0188 -0.0000
vn 0.4919 0.0188 0.8704
vn -0.0059 0.9999 0.0103
vn 0.0103 0.9999 0.0059
vn -0.0000 1.0000 0.0097
vn -0.0000 1.0000 -0.0097
vn -0.0000 1.0000 -0.0000
vn 0.0103 0.9999 -0.0059
vn 0.0097 1.0000 -0.0000
vn -0.0059 0.9999 -0.0103
vn -0.0097 1.0000 -0.0000
vn -0.0000 0.0188 -0.9998
vn 0.8704 0.0188 -0.4920
vn 0.8704 0.0186 0.4921
vn -0.6869 0.6145 -0.3880
vn 0.3880 0.6145 -0.6869
vn 0.6869 0.6145 0.3880
vn -0.3880 0.6145 0.6869
vn -0.3886 0.6141 -0.6870
vn -0.0000 0.6145 -0.7889
vn 0.3885 0.6141 0.6869
vn -0.0000 0.6145 0.7889
vn -0.6870 0.6141 0.3885
vn -0.7889 0.6145 -0.0000
vn 0.6870 0.6141 -0.3885
vn 0.7889 0.6145 -0.0000
vn -0.9999 0.0110 -0.0000
vn -0.8707 0.0113 0.4917
vn 0.9999 0.0110 -0.0000
vn 0.8707 0.0113 -0.4917
vn -0.0000 0.0111 -0.9999
vn -0.4918 0.0113 -0.8706
vn -0.0000 0.0110 0.9999
vn 0.4917 0.0114 0.8707
vn -0.4917 0.0114 0.8707
vn 0.8707 0.0113 0.4917
vn 0.4918 0.0113 -0.8706
vn -0.8707 0.0113 -0.4918
vn 0.3782 0.6392 0.6696
vn 0.7796 0.6263 -0.0000
vn -0.3782 0.6392 0.6696
vn 0.6696 0.6392 0.3782
vn -0.0000 0.6263 -0.7796
vn 0.3782 0.6392 -0.6696
vn -0.6696 0.6392 -0.3782
vn -0.0000 0.6262 0.7796
vn -0.6696 0.6392 0.3782
vn 0.6696 0.6392 -0.3782
vn -0.7796 0.6263 -0.0000
vn -0.3782 0.6392 -0.6696
vn -0.8706 -0.0166 -0.4917
vn 0.4917 -0.0166 -0.8706
vn 0.8706 -0.0166 0.4917
vn -0.4917 -0.0166 0.8706
vn 0.4917 -0.0166 0.8706
vn -0.0000 -0.0160 0.9999
vn -0.4917 -0.0166 -0.8706
vn -0.0000 -0.0160 -0.9999
vn 0.8706 -0.0166 -0.4917
vn 0.9999 -0.0160 -0.0000
vn -0.8706 -0.0166 0.4917
vn -0.9999 -0.0160 -0.0000
vn -0.8707 0.0089 -0.4918
vn 0.4918 0.0089 -0.8707
vn 0.8707 0.0089 0.4918
vn -0.4917 0.0089 0.8707
vn 0.4917 0.0089 0.8707
vn -0.0000 0.0086 1.0000
vn -0.4918 0.0089 -0.8707
vn -0.0000 0.0086 -1.0000
vn 0.8707 0.0089 -0.4918
vn 1.0000 0.0086 -0.0000
vn -0.8707 0.0089 0.4918
vn -1.0000 0.0086 -0.0000
vn -0.7542 -0.4997 0.4259
vn 0.4259 -0.4997 0.7542
vn -0.4604 0.3514 -0.8152
vn -0.4260 -0.4997 0.7542
vn 0.4260 -0.4997 -0.7542
vn 0.4340 -0.4703 -0.7684
vn -0.4347 -0.4689 -0.7688
vn -0.7684 -0.4704 -0.4340
vn -0.7688 -0.4690 0.4347
vn -0.4340 -0.4703 0.7684
vn 0.4347 -0.4689 0.7688
vn 0.7685 -0.4702 0.4341
vn 0.7689 -0.4689 -0.4347
vn 0.4920 0.0188 -0.8704
vn -0.4921 0.0186 -0.8703
vn -0.8704 0.0188 -0.4919
vn -0.8703 0.0186 0.4921
vn -0.4919 0.0188 0.8704
vn 0.4921 0.0186 0.8703
vn -0.0103 0.9999 0.0059
vn 0.0059 0.9999 0.0103
vn 0.0059 0.9999 -0.0103
vn -0.0103 0.9999 -0.0059
vn 0.8704 0.0186 -0.4921
vn 0.8704 0.0188 0.4919
vn -0.6870 0.6141 -0.3885
vn 0.3886 0.6141 -0.6870
vn 0.6870 0.6141 0.3885
vn -0.3885 0.6141 0.6869
vn -0.3880 0.6145 -0.6869
vn 0.3880 0.6145 0.6869
vn -0.6869 0.6145 0.3880
vn 0.6869 0.6145 -0.3880
vn -0.4917 0.0114 -0.8707
vn 0.4917 0.0114 -0.8707
vn -0.8707 0.0113 -0.4917
vn 0.8707 0.0089 0.4917
vn -0.8707 0.0089 0.4917
vt 0.550909 0.516131
vt 0.535227 0.526930
vt 0.531574 0.514415
vt 0.550121 0.513064
vt 0.534438 0.526043
vt 0.530785 0.512859
vt 0.550709 0.516906
vt 0.535026 0.527706
vt 0.531373 0.515190
vt 0.550309 0.513451
vt 0.534625 0.526430
vt 0.530973 0.513246
vt 0.549391 0.510864
vt 0.578327 0.504301
vt 0.579534 0.510864
vt 0.573447 0.545815
vt 0.581590 0.556627
vt 0.572422 0.556724
vt 0.574236 0.545598
vt 0.558864 0.555948
vt 0.557838 0.545598
vt 0.574035 0.546374
vt 0.582177 0.555909
vt 0.573009 0.556723
vt 0.579747 0.512278
vt 0.596261 0.503721
vt 0.599011 0.510568
vt 0.596048 0.504114
vt 0.598798 0.510660
vt 0.596248 0.526430
vt 0.580565 0.513451
vt 0.599901 0.513246
vt 0.578961 0.526613
vt 0.596060 0.526043
vt 0.580377 0.513064
vt 0.599713 0.512859
vt 0.551724 0.526226
vt 0.579347 0.511252
vt 0.550411 0.504690
vt 0.578140 0.504690
vt 0.532877 0.504114
vt 0.550598 0.504302
vt 0.549403 0.511502
vt 0.578340 0.504519
vt 0.579547 0.511502
vt 0.549203 0.511252
vt 0.532690 0.504502
vt 0.582377 0.555134
vt 0.573210 0.555948
vt 0.557239 0.546202
vt 0.572609 0.557112
vt 0.558264 0.557112
vt 0.549697 0.555134
vt 0.547360 0.544668
vt 0.557051 0.545815
vt 0.548909 0.556627
vt 0.546572 0.545704
vt 0.558077 0.556724
vt 0.557638 0.546374
vt 0.549496 0.555909
vt 0.547160 0.545444
vt 0.549603 0.512278
vt 0.578540 0.505294
vt 0.532889 0.502946
vt 0.550610 0.504519
vt 0.596647 0.527706
vt 0.580965 0.516906
vt 0.600300 0.515190
vt 0.579362 0.529240
vt 0.596847 0.526930
vt 0.581164 0.516131
vt 0.600500 0.514415
vt 0.552512 0.528465
vt 0.561414 0.518267
vt 0.556150 0.523531
vt 0.553178 0.518267
vt 0.561414 0.510031
vt 0.556150 0.504767
vt 0.561414 0.501794
vt 0.553178 0.510031
vt 0.577887 0.518267
vt 0.569651 0.510031
vt 0.577887 0.510031
vt 0.569651 0.518267
vt 0.574914 0.504767
vt 0.569651 0.501794
vt 0.574914 0.523531
vt 0.569651 0.526504
vt 0.596060 0.502946
vt 0.598810 0.509793
vt 0.595861 0.504502
vt 0.598610 0.511048
vt 0.533090 0.503721
vt 0.550810 0.505294
vt 0.549096 0.557015
vt 0.546760 0.546091
vt 0.558663 0.556723
vt 0.573635 0.546202
vt 0.581777 0.557015
vt 0.455288 0.320626
vt 0.453133 0.320004
vt 0.455519 0.320029
vt 0.449402 0.320563
vt 0.452988 0.319929
vt 0.452905 0.320563
vt 0.447309 0.320626
vt 0.449464 0.320004
vt 0.449547 0.320602
vt 0.449545 0.320677
vt 0.453130 0.320079
vt 0.453047 0.320677
vt 0.455143 0.320762
vt 0.455373 0.320141
vt 0.447164 0.320762
vt 0.449320 0.319929
vt 0.455285 0.320701
vt 0.455516 0.320104
vt 0.453052 0.320563
vt 0.449467 0.319929
vt 0.453135 0.319929
vt 0.447307 0.320701
vt 0.449462 0.320079
vt 0.455291 0.320762
vt 0.455521 0.320141
vt 0.447312 0.320762
vt 0.449550 0.320563
vt 0.453050 0.320602
vt 0.455487 0.317736
vt 0.452976 0.317669
vt 0.447110 0.317736
vt 0.449476 0.317710
vt 0.453119 0.317785
vt 0.455342 0.317880
vt 0.446965 0.317880
vt 0.449331 0.317669
vt 0.455485 0.317811
vt 0.453124 0.317669
vt 0.447107 0.317811
vt 0.449473 0.317785
vt 0.449635 0.320485
vt 0.448108 0.322013
vt 0.447101 0.320231
vt 0.449635 0.316983
vt 0.448108 0.315456
vt 0.449890 0.314449
vt 0.447101 0.317238
vt 0.455672 0.317238
vt 0.453138 0.320485
vt 0.453138 0.316983
vt 0.454665 0.315456
vt 0.452883 0.314449
vt 0.454665 0.322013
vt 0.455672 0.320231
vt 0.449890 0.323019
vt 0.453121 0.317710
vt 0.447113 0.317880
vt 0.449479 0.317669
vt 0.455490 0.317880
vt 0.453209 0.324260
vt 0.452883 0.323019
vt 0.454577 0.316159
vt 0.452795 0.316140
vt 0.449564 0.313208
vt 0.454575 0.316234
vt 0.452793 0.316215
vt 0.448020 0.316159
vt 0.449802 0.316140
vt 0.448018 0.316234
vt 0.449800 0.316215
vt 0.449564 0.324260
vt 0.447198 0.322923
vt 0.452650 0.316290
vt 0.449657 0.316290
vt 0.453209 0.313208
vt 0.455575 0.314546
vt 0.452798 0.316290
vt 0.449805 0.316290
vt 0.550871 0.505942
vt 0.581202 0.505942
vt 0.600587 0.504222
vt 0.581002 0.506717
vt 0.550671 0.506717
vt 0.600385 0.504997
vt 0.550083 0.502733
vt 0.580415 0.502733
vt 0.599799 0.502528
vt 0.580602 0.503120
vt 0.550271 0.503120
vt 0.599986 0.502915
vt 0.530887 0.502915
vt 0.531287 0.504997
vt 0.530699 0.502528
vt 0.531488 0.504222
vt 0.584114 0.546091
vt 0.552312 0.529240
vt 0.551912 0.526613
vt 0.588399 0.528993
vt 0.571866 0.513739
vt 0.588399 0.509141
vt 0.578774 0.526226
vt 0.554634 0.509916
vt 0.571166 0.525170
vt 0.554633 0.529767
vt 0.553926 0.528993
vt 0.570459 0.513739
vt 0.570459 0.525773
vt 0.589106 0.509916
vt 0.572573 0.525169
vt 0.572573 0.513136
vt 0.579562 0.528465
vt 0.583926 0.545704
vt 0.548441 0.527892
vt 0.530340 0.510568
vt 0.548041 0.526571
vt 0.529940 0.511048
vt 0.548241 0.527117
vt 0.530139 0.509793
vt 0.548229 0.526182
vt 0.530127 0.510660
vt 0.580696 0.526182
vt 0.580509 0.526571
vt 0.580709 0.527117
vt 0.580908 0.527892
vt 0.447007 0.307790
vt 0.441840 0.324509
vt 0.441154 0.307539
vt 0.446970 0.307604
vt 0.441802 0.324801
vt 0.441116 0.307574
vt 0.447010 0.307811
vt 0.441843 0.324530
vt 0.441156 0.307560
vt 0.446843 0.307604
vt 0.441675 0.324801
vt 0.440989 0.307574
vt 0.461170 0.324801
vt 0.456002 0.307604
vt 0.461856 0.307574
vt 0.455701 0.324829
vt 0.461297 0.324801
vt 0.456129 0.307604
vt 0.461983 0.307574
vt 0.455828 0.324829
vt 0.461337 0.324530
vt 0.456170 0.307811
vt 0.462023 0.307560
vt 0.455868 0.324765
vt 0.461334 0.324509
vt 0.456167 0.307790
vt 0.462021 0.307539
vt 0.447308 0.324744
vt 0.584513 0.545444
vt 0.584713 0.544668
vt 0.561414 0.526504
vt 0.447079 0.320029
vt 0.446934 0.320141
vt 0.447076 0.320104
vt 0.447081 0.320141
vt 0.455575 0.322923
vt 0.447198 0.314546
vt 0.571867 0.525772
vt 0.571166 0.513136
vt 0.553926 0.509141
vt 0.589107 0.529767
vt 0.527693 0.526051
vt 0.527292 0.526351
vt 0.527492 0.525276
vt 0.527480 0.525963
vt 0.601445 0.525963
vt 0.601258 0.526351
vt 0.601457 0.525276
vt 0.601658 0.526051
vt 0.447271 0.324829
vt 0.447311 0.324765
vt 0.447144 0.324829
vt 0.455865 0.324744
s 0
g small_bottle_tall_2_Material
usemtl Material
f 104/1/1 4/2/1 94/3/1
f 100/4/2 8/5/2 95/6/2
f 102/7/3 6/8/3 96/9/3
f 98/10/4 2/11/4 93/12/4
f 13/13/5 35/14/5 14/15/5
f 114/16/6 27/17/6 49/18/6
f 106/19/7 28/20/7 111/21/7
f 105/22/8 25/23/8 52/24/8
f 18/25/9 30/26/9 1/27/9
f 14/15/10 36/28/10 5/29/10
f 6/30/11 97/31/11 96/32/11
f 15/33/12 98/10/12 97/31/12
f 4/34/13 99/35/13 94/36/13
f 99/35/14 12/37/14 100/4/14
f 10/38/15 37/39/15 31/40/15
f 13/13/16 30/41/16 38/42/16
f 21/43/17 33/44/17 22/45/17
f 9/46/18 34/47/18 37/39/18
f 106/19/19 48/48/19 51/49/19
f 108/50/20 50/51/20 47/52/20
f 111/21/21 27/53/21 110/54/21
f 113/55/22 25/56/22 112/57/22
f 114/16/23 26/58/23 113/55/23
f 116/59/24 46/60/24 115/61/24
f 17/62/25 29/63/25 18/25/25
f 21/43/26 36/64/26 42/65/26
f 8/66/27 101/67/27 95/68/27
f 23/69/28 102/7/28 101/67/28
f 2/70/29 103/71/29 93/72/29
f 103/71/30 20/73/30 104/1/30
f 40/74/31 36/75/31 35/76/31
f 39/77/31 30/78/31 29/79/31
f 40/74/31 38/80/31 39/77/31
f 37/81/31 43/82/31 31/83/31
f 44/84/31 39/77/31 43/82/31
f 32/85/31 43/82/31 41/86/31
f 43/82/31 29/79/31 41/86/31
f 34/87/31 44/84/31 37/81/31
f 33/88/31 40/74/31 44/84/31
f 22/45/32 34/89/32 7/90/32
f 10/38/33 32/91/33 3/92/33
f 17/62/34 32/93/34 41/94/34
f 108/50/35 48/95/35 107/96/35
f 116/59/36 52/24/36 45/97/36
f 109/98/37 46/99/37 50/51/37
f 25/100/38 55/101/38 56/102/38
f 51/103/39 53/104/39 28/105/39
f 27/106/40 61/107/40 49/108/40
f 50/109/41 59/110/41 47/111/41
f 27/112/42 53/104/42 54/113/42
f 48/114/43 65/115/43 51/103/43
f 48/116/44 59/110/44 60/117/44
f 45/118/45 66/119/45 57/120/45
f 46/121/46 62/122/46 50/109/46
f 46/123/47 57/120/47 58/124/47
f 25/125/48 66/119/48 52/126/48
f 49/108/49 55/101/49 26/127/49
f 55/101/50 63/128/50 56/102/50
f 65/115/51 69/129/51 53/104/51
f 61/107/52 68/130/52 67/131/52
f 62/122/53 72/132/53 59/110/53
f 53/104/54 68/133/54 54/113/54
f 65/115/55 71/134/55 70/135/55
f 59/110/56 71/136/56 60/117/56
f 66/119/57 73/137/57 57/120/57
f 62/122/58 76/138/58 75/139/58
f 79/140/59 92/141/59 80/142/59
f 77/143/60 91/144/60 86/145/60
f 79/140/61 78/146/61 77/143/61
f 81/147/62 84/148/62 82/149/62
f 84/148/63 77/143/63 82/149/63
f 90/150/64 82/149/64 85/151/64
f 82/149/65 86/145/65 85/151/65
f 89/152/66 84/148/66 83/153/66
f 84/148/67 88/154/67 79/140/67
f 55/101/68 67/131/68 64/155/68
f 66/119/69 63/156/69 74/157/69
f 57/120/70 76/158/70 58/124/70
f 89/152/71 69/159/71 87/160/71
f 90/161/72 64/155/72 81/162/72
f 91/144/73 73/163/73 86/145/73
f 92/164/74 72/132/74 80/165/74
f 89/166/75 67/131/75 68/130/75
f 81/162/76 67/131/76 83/167/76
f 91/168/77 75/139/77 76/138/77
f 78/169/78 72/132/78 75/139/78
f 92/141/79 70/170/79 71/171/79
f 87/172/80 70/135/80 88/173/80
f 90/150/81 74/174/81 63/175/81
f 86/176/82 74/157/82 85/177/82
f 103/71/83 140/178/83 139/179/83
f 93/72/84 139/179/84 129/180/84
f 137/181/85 102/7/85 138/182/85
f 95/68/86 137/181/86 131/183/86
f 99/35/87 136/184/87 135/185/87
f 94/36/88 135/185/88 130/186/88
f 133/187/89 98/10/89 134/188/89
f 96/32/90 133/187/90 132/189/90
f 134/188/91 93/12/91 129/190/91
f 138/182/92 96/9/92 132/191/92
f 136/184/93 95/6/93 131/192/93
f 140/178/94 94/3/94 130/193/94
f 15/33/95 115/194/95 109/98/95
f 24/195/96 105/22/96 116/59/96
f 16/196/97 107/96/97 2/11/97
f 24/197/98 115/198/98 6/199/98
f 11/200/99 113/55/99 12/37/99
f 12/37/100 112/57/100 8/5/100
f 20/201/101 110/202/101 4/203/101
f 15/33/102 108/50/102 16/196/102
f 19/204/103 107/205/103 106/206/103
f 23/207/104 112/208/104 105/209/104
f 19/210/105 111/21/105 20/73/105
f 11/200/106 110/211/106 114/16/106
f 127/212/107 3/213/107 17/62/107
f 123/214/108 7/215/108 9/46/108
f 125/216/109 5/217/109 21/43/109
f 121/218/110 1/219/110 13/13/110
f 5/29/111 120/220/111 14/15/111
f 120/220/112 13/13/112 14/15/112
f 3/92/113 122/221/113 10/38/113
f 122/221/114 9/46/114 10/38/114
f 7/90/115 124/222/115 22/45/115
f 22/45/116 125/216/116 21/43/116
f 1/27/117 126/223/117 18/25/117
f 126/223/118 17/62/118 18/25/118
f 127/224/119 130/225/119 117/226/119
f 123/227/120 131/228/120 118/229/120
f 125/230/121 132/231/121 119/232/121
f 121/233/122 129/234/122 128/235/122
f 132/236/123 120/237/123 119/238/123
f 133/239/124 121/233/124 120/237/124
f 130/240/125 122/241/125 117/242/125
f 135/243/126 123/227/126 122/241/126
f 131/244/127 124/245/127 118/246/127
f 137/247/128 125/230/128 124/245/128
f 129/248/129 126/249/129 128/250/129
f 126/249/130 140/251/130 127/224/130
f 104/1/1 20/73/1 4/2/1
f 100/4/2 12/37/2 8/5/2
f 102/7/3 24/195/3 6/8/3
f 98/10/4 16/196/4 2/11/4
f 13/13/5 38/42/5 35/14/5
f 114/16/6 110/211/6 27/17/6
f 106/19/7 51/49/7 28/20/7
f 105/22/8 112/252/8 25/23/8
f 18/25/131 29/63/131 30/26/131
f 14/15/132 35/14/132 36/28/132
f 6/30/11 15/33/11 97/31/11
f 15/33/12 16/196/12 98/10/12
f 4/34/133 11/200/133 99/35/133
f 99/35/14 11/200/14 12/37/14
f 10/38/15 9/46/15 37/39/15
f 13/13/134 1/219/134 30/41/134
f 21/43/17 42/65/17 33/44/17
f 9/46/135 7/215/135 34/47/135
f 106/19/19 107/253/19 48/48/19
f 108/50/20 109/98/20 50/51/20
f 111/21/21 28/20/21 27/53/21
f 113/55/22 26/58/22 25/56/22
f 114/16/23 49/18/23 26/58/23
f 116/59/24 45/97/24 46/60/24
f 17/62/25 41/94/25 29/63/25
f 21/43/26 5/217/26 36/64/26
f 8/66/27 23/69/27 101/67/27
f 23/69/28 24/195/28 102/7/28
f 2/70/29 19/210/29 103/71/29
f 103/71/30 19/210/30 20/73/30
f 40/74/31 42/254/31 36/75/31
f 39/77/31 38/80/31 30/78/31
f 40/74/31 35/76/31 38/80/31
f 37/81/31 44/84/31 43/82/31
f 44/84/31 40/74/31 39/77/31
f 32/85/31 31/83/31 43/82/31
f 43/82/31 39/77/31 29/79/31
f 34/87/31 33/88/31 44/84/31
f 33/88/31 42/254/31 40/74/31
f 22/45/32 33/44/32 34/89/32
f 10/38/33 31/40/33 32/91/33
f 17/62/34 3/213/34 32/93/34
f 108/50/35 47/52/35 48/95/35
f 116/59/36 105/22/36 52/24/36
f 109/98/37 115/194/37 46/99/37
f 25/100/136 26/127/136 55/101/136
f 51/103/39 65/115/39 53/104/39
f 27/106/137 54/255/137 61/107/137
f 50/109/41 62/122/41 59/110/41
f 27/112/138 28/105/138 53/104/138
f 48/114/139 60/256/139 65/115/139
f 48/116/140 47/111/140 59/110/140
f 45/118/45 52/126/45 66/119/45
f 46/121/141 58/257/141 62/122/141
f 46/123/142 45/118/142 57/120/142
f 25/125/143 56/258/143 66/119/143
f 49/108/49 61/107/49 55/101/49
f 55/101/144 64/155/144 63/128/144
f 65/115/51 70/135/51 69/129/51
f 61/107/145 54/255/145 68/130/145
f 62/122/53 75/139/53 72/132/53
f 53/104/146 69/129/146 68/133/146
f 65/115/147 60/256/147 71/134/147
f 59/110/148 72/132/148 71/136/148
f 66/119/57 74/157/57 73/137/57
f 62/122/149 58/257/149 76/138/149
f 79/140/150 88/154/150 92/141/150
f 77/143/151 78/146/151 91/144/151
f 79/140/61 80/142/61 78/146/61
f 81/147/62 83/153/62 84/148/62
f 84/148/63 79/140/63 77/143/63
f 90/150/152 81/147/152 82/149/152
f 82/149/65 77/143/65 86/145/65
f 89/152/153 87/160/153 84/148/153
f 84/148/67 87/160/67 88/154/67
f 55/101/68 61/107/68 67/131/68
f 66/119/154 56/258/154 63/156/154
f 57/120/155 73/137/155 76/158/155
f 89/152/156 68/259/156 69/159/156
f 90/161/157 63/128/157 64/155/157
f 91/144/158 76/260/158 73/163/158
f 92/164/159 71/136/159 72/132/159
f 89/166/160 83/167/160 67/131/160
f 81/162/76 64/155/76 67/131/76
f 91/168/161 78/169/161 75/139/161
f 78/169/78 80/165/78 72/132/78
f 92/141/162 88/154/162 70/170/162
f 87/172/80 69/129/80 70/135/80
f 90/150/163 85/151/163 74/174/163
f 86/176/82 73/137/82 74/157/82
f 103/71/83 104/1/83 140/178/83
f 93/72/84 103/71/84 139/179/84
f 137/181/85 101/67/85 102/7/85
f 95/68/86 101/67/86 137/181/86
f 99/35/87 100/4/87 136/184/87
f 94/36/164 99/35/164 135/185/164
f 133/187/89 97/31/89 98/10/89
f 96/32/90 97/31/90 133/187/90
f 134/188/91 98/10/91 93/12/91
f 138/182/92 102/7/92 96/9/92
f 136/184/165 100/4/165 95/6/165
f 140/178/166 104/1/166 94/3/166
f 15/33/95 6/30/95 115/194/95
f 24/195/96 23/69/96 105/22/96
f 16/196/97 108/50/97 107/96/97
f 24/197/98 116/261/98 115/198/98
f 11/200/99 114/16/99 113/55/99
f 12/37/100 113/55/100 112/57/100
f 20/201/101 111/262/101 110/202/101
f 15/33/102 109/98/102 108/50/102
f 19/204/103 2/263/103 107/205/103
f 23/207/104 8/264/104 112/208/104
f 19/210/105 106/19/105 111/21/105
f 11/200/106 4/34/106 110/211/106
f 127/212/107 117/265/107 3/213/107
f 123/214/108 118/266/108 7/215/108
f 125/216/109 119/267/109 5/217/109
f 121/218/110 128/268/110 1/219/110
f 5/29/111 119/269/111 120/220/111
f 120/220/112 121/218/112 13/13/112
f 3/92/113 117/270/113 122/221/113
f 122/221/114 123/214/114 9/46/114
f 7/90/115 118/271/115 124/222/115
f 22/45/116 124/222/116 125/216/116
f 1/27/117 128/272/117 126/223/117
f 126/223/118 127/212/118 17/62/118
f 127/224/119 140/251/119 130/225/119
f 123/227/120 136/273/120 131/228/120
f 125/230/167 138/274/167 132/231/167
f 121/233/122 134/275/122 129/234/122
f 132/236/123 133/239/123 120/237/123
f 133/239/124 134/275/124 121/233/124
f 130/240/125 135/243/125 122/241/125
f 135/243/126 136/273/126 123/227/126
f 131/244/127 137/247/127 124/245/127
f 137/247/128 138/274/128 125/230/128
f 129/248/168 139/276/168 126/249/168
f 126/249/130 139/276/130 140/251/130
